<svg xmlns="http://www.w3.org/2000/svg" version="1.1" xmlns:xlink="http://www.w3.org/1999/xlink" width="512" height="512"><svg id="SvgjsSvg1009" data-name="Layer 1" xmlns="http://www.w3.org/2000/svg" viewBox="0 0 512 512">
  <defs>
    <style>
      .cls-1 {
        fill: #eaf4ee;
      }

      .cls-1, .cls-2, .cls-3 {
        stroke-width: 0px;
      }

      .cls-2 {
        fill: #a8ce3b;
      }

      .cls-3 {
        fill: #f2cb2c;
      }
    </style>
  </defs>
  <g>
    <g>
      <path class="cls-3" d="m278.39,224.28c-1.31,1.16-2.59,2.37-3.84,3.62-1.08,1.08-2.13,2.19-3.15,3.32-.55.62-1.1,1.24-1.63,1.87-2.31,2.73-4.44,5.58-6.37,8.54-2.92,4.49-5.4,9.24-7.4,14.17-3.47,8.53-5.51,17.64-6.03,27.03-.09,1.57-.13,3.14-.13,4.72v46.57h12.03v-46.57c0-1.59.05-3.16.15-4.72.63-9.77,3.21-19.01,7.35-27.35,1.95-3.93,4.25-7.66,6.86-11.14.38-.5.76-1,1.14-1.49,2.28-2.89,4.78-5.61,7.47-8.12,12.93-12.09,30.3-19.5,49.35-19.5v-12.03c-20.77,0-40.39,7.45-55.81,21.09Z"></path>
      <path class="cls-1" d="m293.88,256.79c-4.72,8.18-7.55,17.58-7.92,27.6-.02.72-.04,1.44-.04,2.16v91.22s.04,0,.07-.02c4.07-1,8.06-2.19,11.97-3.58v-87.62c0-.68.01-1.36.04-2.03,1.07-25.37,22.04-45.67,47.66-45.67v-12.03c-22.11,0-41.45,12.07-51.78,29.97Z"></path>
      <path class="cls-2" d="m280.4,186.43c-8.77,3.71-16.94,8.51-24.4,14.32-3.23,2.52-6.33,5.22-9.29,8.12-.3.29-.59.58-.88.87-.44.44-.87.87-1.29,1.31-2.83,2.92-5.48,5.98-7.94,9.17-1.03,1.33-2.03,2.69-2.99,4.06-1.58,2.25-3.07,4.56-4.47,6.93-.68,1.15-1.35,2.32-1.99,3.5-1.44,2.64-2.77,5.35-3.99,8.12-.21.49-.43.98-.63,1.47-1.73,4.09-3.2,8.25-4.4,12.49-2.56,8.98-3.94,18.26-4.12,27.73-.02.71-.02,1.42-.02,2.13v87.5s.04.02.07.03c3.9,1.39,7.9,2.58,11.97,3.58v-91.11c0-.76,0-1.51.03-2.26.23-10.09,2.02-19.81,5.13-28.91,1.31-3.83,2.84-7.55,4.6-11.14.45-.91.91-1.81,1.38-2.71,1.55-2.94,3.25-5.79,5.09-8.54.75-1.12,1.52-2.23,2.31-3.32,2.44-3.35,5.09-6.54,7.94-9.54,1.14-1.21,2.31-2.39,3.52-3.54,2.93-2.8,6.03-5.41,9.29-7.82,16.07-11.91,35.96-18.96,57.45-18.96v-12.03c-14.68,0-28.93,2.88-42.34,8.55Z"></path>
      <path class="cls-1" d="m298,284.53c-.18-9.47-1.56-18.75-4.12-27.73-1.21-4.23-2.68-8.39-4.4-12.48-.21-.49-.42-.98-.63-1.47-1.22-2.77-2.55-5.48-3.99-8.12-.64-1.18-1.3-2.35-1.99-3.5-1.4-2.37-2.89-4.68-4.47-6.93-.96-1.38-1.96-2.73-2.99-4.06-2.46-3.19-5.11-6.25-7.94-9.17-.43-.44-.86-.88-1.29-1.31-.29-.29-.58-.58-.88-.87-2.96-2.89-6.06-5.6-9.29-8.12-7.46-5.81-15.63-10.61-24.41-14.32-13.41-5.68-27.66-8.55-42.34-8.55v12.03h0c21.49,0,41.38,7.05,57.45,18.96,3.26,2.41,6.36,5.02,9.29,7.82,1.2,1.15,2.37,2.32,3.52,3.53,2.84,3.01,5.5,6.19,7.94,9.55.79,1.09,1.56,2.19,2.31,3.31,1.84,2.75,3.54,5.6,5.09,8.54.47.89.93,1.8,1.38,2.71,1.75,3.6,3.29,7.32,4.6,11.14,3.11,9.11,4.9,18.82,5.13,28.91.02.75.03,1.5.03,2.26v91.11c4.07-1,8.06-2.19,11.97-3.58.02,0,.05-.02.07-.03v-87.5c0-.71,0-1.42-.02-2.13Z"></path>
      <path class="cls-3" d="m262.03,282.83c-.51-9.39-2.56-18.5-6.02-27.03-2-4.94-4.48-9.68-7.41-14.17-1.93-2.96-4.05-5.82-6.37-8.54-.54-.63-1.08-1.25-1.63-1.87-1.01-1.13-2.06-2.23-3.15-3.32-1.25-1.25-2.53-2.45-3.84-3.62-15.42-13.64-35.05-21.09-55.82-21.09v12.03h0c19.06,0,36.42,7.41,49.35,19.5,2.69,2.51,5.19,5.23,7.47,8.12.39.49.77.99,1.14,1.49,2.61,3.49,4.91,7.21,6.86,11.14,4.14,8.34,6.72,17.58,7.35,27.35.1,1.56.15,3.14.15,4.72v46.57h12.03v-46.57c0-1.58-.04-3.16-.13-4.72Z"></path>
      <path class="cls-2" d="m226.04,284.39c-.36-10.02-3.2-19.41-7.92-27.59-10.32-17.91-29.67-29.98-51.78-29.98v12.03h0c25.62,0,46.59,20.31,47.66,45.67.03.67.04,1.35.04,2.03v87.62c3.9,1.39,7.9,2.58,11.97,3.58.02,0,.04.01.07.02v-91.22c0-.72-.01-1.44-.04-2.16Z"></path>
    </g>
    <path class="cls-1" d="m256,130.63c69.24,0,125.37,56.13,125.37,125.37,0,54.5-34.77,100.88-83.34,118.15-.02,0-.04.02-.07.03-3.9,1.39-7.9,2.58-11.97,3.58-.02,0-.04.01-.07.02-9.59,2.35-19.61,3.6-29.93,3.6s-20.34-1.25-29.93-3.6c-.02,0-.05-.01-.07-.02-4.07-1-8.06-2.19-11.97-3.58-.02,0-.04-.02-.07-.03-48.57-17.27-83.34-63.65-83.34-118.15,0-69.24,56.13-125.37,125.37-125.37m0-12.03c-18.54,0-36.54,3.63-53.49,10.8-16.36,6.92-31.06,16.83-43.67,29.44-12.61,12.61-22.52,27.31-29.44,43.67-7.17,16.95-10.8,34.94-10.8,53.49,0,14.61,2.28,29,6.79,42.77,4.36,13.32,10.73,25.86,18.93,37.29,8.1,11.28,17.82,21.24,28.89,29.61,11.16,8.43,23.46,15.08,36.58,19.77,0,0,.02,0,.03.01l.1.04.1.03c4.26,1.51,8.64,2.83,13.04,3.91.03,0,.07.02.1.03h.03s.03.01.03.01c10.67,2.62,21.71,3.94,32.79,3.94s22-1.31,32.63-3.9c.14-.03.29-.07.43-.11,4.36-1.07,8.71-2.38,12.93-3.88l.1-.03.1-.04s.02,0,.03-.01c13.12-4.68,25.43-11.33,36.58-19.77,11.08-8.37,20.8-18.34,28.89-29.61,8.2-11.42,14.57-23.97,18.93-37.29,4.5-13.77,6.79-28.15,6.79-42.77,0-18.54-3.63-36.54-10.8-53.49-6.92-16.36-16.83-31.06-29.44-43.67-12.61-12.61-27.31-22.52-43.67-29.44-16.95-7.17-34.94-10.8-53.49-10.8h0Z"></path>
  </g>
  <path class="cls-1" d="m256,512C114.84,512,0,397.16,0,256S114.84,0,256,0s256,114.84,256,256-114.84,256-256,256Zm0-500.11C121.4,11.89,11.89,121.4,11.89,256s109.51,244.11,244.11,244.11,244.11-109.51,244.11-244.11S390.6,11.89,256,11.89Z"></path>
  <g>
    <path class="cls-1" d="m57.89,351.66l25.91-22.98-34.43,2.99-2.48-5.82,46.47-19.8,3.44,8.08-29.99,12.78,32.84-2.9-24.96,22.77,30.49-12.99,2.01,4.72-46.47,19.8-2.83-6.65Z"></path>
    <path class="cls-1" d="m72.9,308.65c-2.93.59-5.69.86-8.3.82-2.61-.04-4.95-.53-7.02-1.45-2.07-.92-3.85-2.36-5.32-4.32-1.47-1.96-2.53-4.55-3.19-7.79-.88-4.37.22-7.99,3.29-10.87,3.08-2.87,7.95-4.98,14.62-6.33,3.79-.76,7.1-1.04,9.94-.85,2.84.2,5.26.84,7.24,1.92,1.98,1.08,3.58,2.58,4.77,4.49,1.2,1.91,2.06,4.17,2.59,6.79.93,4.61-.16,8.33-3.26,11.17-3.1,2.84-8.23,4.98-15.37,6.42Zm13.65-19.32c-.24-1.21-.75-2.12-1.53-2.74-.77-.62-1.85-.99-3.24-1.11-1.39-.13-3.1-.05-5.13.24s-4.42.71-7.15,1.26c-2.11.42-4.12,1.01-6.04,1.77-1.92.75-3.6,1.62-5.05,2.6-1.45.98-2.55,2.05-3.32,3.2-.76,1.15-1.02,2.33-.78,3.54.17.86.57,1.55,1.18,2.08.61.53,1.55.88,2.8,1.05,1.25.17,2.86.18,4.81,0,1.96-.17,4.34-.54,7.15-1.11,5.7-1.15,9.96-2.64,12.78-4.46,2.82-1.83,3.99-3.93,3.51-6.31Z"></path>
    <path class="cls-1" d="m34.98,247.11l51.58-1.05.13,6.57-3.38.96c1.41.77,2.53,1.83,3.35,3.19.82,1.36,1.26,3.27,1.31,5.74.04,1.75-.52,3.36-1.66,4.81-1.14,1.46-2.76,2.74-4.85,3.83-2.09,1.1-4.61,1.97-7.56,2.6-2.95.64-6.2.99-9.74,1.06-2.07.04-4.2-.12-6.4-.5-2.2-.37-4.2-1.02-6.01-1.94-1.81-.92-3.31-2.12-4.49-3.61-1.18-1.49-1.8-3.33-1.84-5.52-.02-1.11.03-2.05.15-2.81.12-.76.31-1.41.56-1.95.25-.54.55-1.03.9-1.45.35-.42.72-.86,1.11-1.31l-10.21.21-2.93-8.84Zm15.16,14.14c.03,1.71,1.06,2.97,3.06,3.79,2.01.82,4.8,1.19,8.38,1.11,1.99-.04,4.23-.22,6.71-.55,2.48-.33,4.82-.79,7.02-1.4,2.2-.6,4.04-1.37,5.54-2.29,1.49-.93,2.23-1.99,2.2-3.18,0-.48-.28-.94-.8-1.39-.53-.45-1.16-.83-1.9-1.16-.74-.32-1.52-.58-2.35-.76-.82-.18-1.53-.27-2.13-.25l-17.01.35c-.64.01-1.46.17-2.47.47-1.01.3-1.98.71-2.9,1.22-.92.52-1.72,1.12-2.38,1.81-.66.69-.99,1.43-.97,2.23Z"></path>
    <path class="cls-1" d="m48.13,221.39c.34-2.16,1.17-3.96,2.5-5.38,1.33-1.43,2.99-2.53,4.98-3.31,1.99-.78,4.22-1.24,6.68-1.38,2.46-.14,5.01,0,7.64.4l-3.15,20.3,1.83.28c1.22.19,2.74.31,4.56.38,1.82.06,3.62-.07,5.38-.4,1.76-.33,3.32-.94,4.66-1.82,1.35-.88,2.15-2.18,2.42-3.92.19-1.22-.12-2.37-.91-3.46-.8-1.09-2.08-2.2-3.84-3.31l2.42-3.49c2.51,1.76,4.35,3.73,5.52,5.9,1.17,2.18,1.52,4.8,1.05,7.87-.34,2.2-1.16,4.12-2.46,5.75-1.3,1.63-2.93,2.95-4.9,3.95-1.97,1-4.22,1.67-6.75,2.01-2.53.33-5.19.28-7.98-.15-2.95-.46-5.7-1.3-8.25-2.52-2.55-1.22-4.72-2.73-6.52-4.52-1.8-1.79-3.14-3.81-4.04-6.07-.9-2.25-1.18-4.62-.83-7.11Zm15.8-3.29c-.84-.05-1.86-.11-3.05-.17-1.2-.07-2.37,0-3.51.21-1.14.21-2.16.6-3.05,1.19-.9.59-1.44,1.47-1.62,2.65-.18,1.14-.05,2.18.39,3.11.44.94,1.1,1.77,1.97,2.51.87.74,1.91,1.36,3.12,1.87,1.21.51,2.48.91,3.8,1.19l1.95-12.57Z"></path>
    <path class="cls-1" d="m55.33,192.8l4.78,1.52c-.97-.77-1.7-1.5-2.21-2.21-.51-.7-.86-1.39-1.06-2.06-.2-.67-.27-1.31-.2-1.91.07-.61.19-1.17.36-1.7.51-1.59,1.81-2.93,3.91-4.02l4.02,5.67c-.3.28-.57.6-.81.96-.24.36-.46.87-.67,1.51-.16.49-.13,1.06.09,1.69.22.63.62,1.28,1.2,1.95.58.67,1.34,1.3,2.28,1.89.94.59,2.03,1.09,3.29,1.49l24.23,7.73-2.69,8.42-36.58-11.67.07-9.25Z"></path>
    <path class="cls-1" d="m65.07,167.49l2.57,1.27c-.7-1.37-.94-2.78-.74-4.23.21-1.45.62-2.8,1.24-4.05.72-1.46,1.62-2.69,2.7-3.69,1.07-1,2.25-1.75,3.52-2.26,1.27-.5,2.62-.71,4.04-.63,1.42.08,2.85.48,4.28,1.19l27.66,13.71-3.95,7.97-26.8-13.29c-1.71-.85-3.33-1.16-4.86-.94-1.53.22-2.61.95-3.22,2.2-.27.53-.37,1.13-.31,1.78.06.65.24,1.29.55,1.91.31.62.77,1.23,1.37,1.81.6.59,1.29,1.07,2.07,1.46l27.07,13.42-3.93,7.92-34.4-17.05,1.15-8.5Z"></path>
    <path class="cls-1" d="m89.11,113.02l39,32.11-5.66,6.87-39-32.11,5.66-6.87Z"></path>
    <path class="cls-1" d="m107.23,107.3l3.53,3.56c-.5-1.13-.81-2.12-.94-2.98-.12-.86-.12-1.63,0-2.32.13-.69.36-1.29.7-1.79.34-.51.71-.95,1.1-1.35,1.19-1.18,2.96-1.76,5.33-1.75l.95,6.89c-.39.11-.78.27-1.16.48-.38.21-.81.55-1.29,1.03-.37.36-.6.88-.7,1.54-.1.66-.05,1.42.16,2.28.21.86.59,1.77,1.15,2.73s1.3,1.9,2.23,2.84l17.92,18.05-6.27,6.23-27.05-27.25,4.34-8.17Z"></path>
    <path class="cls-1" d="m127.61,89.38l3.05,3.98c-.35-1.18-.54-2.21-.55-3.08-.01-.87.09-1.63.31-2.3.22-.67.53-1.23.93-1.69.4-.46.82-.86,1.27-1.19,1.33-1.02,3.16-1.37,5.51-1.06l.06,6.95c-.41.06-.81.17-1.22.33-.4.16-.88.44-1.41.86-.41.32-.71.79-.89,1.44-.18.64-.23,1.4-.13,2.28.1.88.36,1.83.79,2.85.43,1.02,1.05,2.06,1.85,3.1l15.46,20.2-7.02,5.37-23.33-30.49,5.35-7.55Z"></path>
    <path class="cls-1" d="m139.93,67.38c1.15-.71,2.39-.91,3.7-.6,1.31.31,2.34,1.06,3.07,2.25.73,1.19.94,2.44.63,3.75-.31,1.31-1.04,2.33-2.2,3.04-1.19.73-2.44.95-3.78.65-1.33-.3-2.36-1.04-3.09-2.23-.73-1.19-.93-2.44-.6-3.77.33-1.32,1.09-2.35,2.27-3.09Zm9.59,7.13l21.6,35.02-7.57,4.67-20.16-32.68,6.13-7.01Z"></path>
    <path class="cls-1" d="m188.45,59.02c.53,1.99.71,3.56.53,4.73-.18,1.17-.78,2.11-1.81,2.83.76.84,1.44,1.72,2.03,2.66.59.94,1.12,1.93,1.59,2.99,2.21,4.99,2.59,9.15,1.13,12.5-1.46,3.35-4.57,6.07-9.34,8.19-.29.13-.66.26-1.1.39s-.91.24-1.42.34c-.5.09-1,.18-1.48.27-.48.08-.9.14-1.24.16-.01.27.03.51.13.73.23.51.69.91,1.39,1.21.7.3,1.5.49,2.41.57.91.08,1.85.06,2.85-.05.99-.11,1.91-.36,2.75-.73l.69,1.26c-1.31.88-2.51,1.75-3.62,2.59-1.11.84-2.02,1.65-2.75,2.43s-1.24,1.51-1.54,2.19c-.31.68-.33,1.31-.07,1.89.27.62.71,1.12,1.29,1.52s1.25.66,1.99.81c.74.15,1.56.17,2.44.06s1.77-.36,2.64-.75c.98-.44,2.08-1.02,3.3-1.76,1.22-.74,2.4-1.51,3.54-2.32,1.14-.81,2.18-1.61,3.12-2.4.94-.79,1.61-1.46,2.01-2.03l2.9,2.57c-2.34,2.69-4.84,4.95-7.51,6.79-2.67,1.84-5.35,3.35-8.04,4.55-1.71.76-3.34,1.28-4.88,1.58-1.55.29-2.98.34-4.31.15-1.33-.2-2.48-.63-3.45-1.31-.98-.68-1.73-1.62-2.26-2.82-.4-.91-.56-1.85-.47-2.83.09-.98.4-1.95.92-2.92.53-.97,1.24-1.92,2.14-2.84.9-.92,1.93-1.79,3.09-2.61-1.89.36-3.36.35-4.42-.03-1.06-.38-1.7-.82-1.93-1.33-.26-.58-.18-1.3.22-2.16.4-.85,1.02-1.68,1.84-2.48-2.51-.54-4.65-1.67-6.43-3.39-1.78-1.71-3.15-3.64-4.1-5.79-.87-1.97-1.36-3.99-1.46-6.08-.1-2.09.19-4.1.88-6.04.69-1.94,1.78-3.73,3.27-5.37,1.49-1.64,3.42-2.99,5.79-4.04,1.82-.81,3.61-1.19,5.37-1.14,1.76.05,3.51.45,5.24,1.21.47-.03.93-.15,1.41-.36,1.16-.52,1.9-1.65,2.22-3.4l2.55-.15Zm-18.67,19.77c.48,1.09,1.16,2.3,2.03,3.61.86,1.31,1.88,2.49,3.03,3.52,1.16,1.03,2.42,1.77,3.79,2.21,1.37.44,2.8.33,4.29-.34,1.64-.73,2.62-1.79,2.96-3.2.33-1.41-.07-3.39-1.2-5.94-.55-1.24-1.3-2.59-2.26-4.06s-2.04-2.76-3.25-3.88c-1.21-1.12-2.51-1.93-3.9-2.45-1.38-.52-2.79-.46-4.2.17-1.64.73-2.55,1.97-2.75,3.74-.2,1.76.29,3.98,1.47,6.63Z"></path>
    <path class="cls-1" d="m195.29,61.51c.98-3.03,2.44-5.35,4.39-6.97,1.94-1.62,4.22-2.75,6.86-3.39,1.78-.43,3.45-.55,5.01-.36,1.56.19,2.96.61,4.18,1.26,1.22.65,2.26,1.5,3.11,2.56.85,1.06,1.44,2.25,1.76,3.57l5.97,24.48c.42,1.7,1.65,3.51,3.72,5.42l-6.38,1.56c-.82-.5-1.51-1.17-2.06-2.02-.56-.85-1.03-1.74-1.42-2.67-.13.98-.36,1.9-.68,2.78s-.76,1.68-1.32,2.41c-.56.73-1.26,1.37-2.11,1.93-.85.55-1.91.99-3.19,1.3-2.05.5-3.86.61-5.42.34-1.56-.27-2.91-.84-4.04-1.69-1.13-.85-2.07-1.95-2.83-3.3-.76-1.35-1.34-2.86-1.75-4.52-.72-2.94-.26-5.73,1.37-8.39,1.63-2.65,4.47-4.88,8.54-6.69,1.18-.53,2.1-1.21,2.76-2.03.66-.82,1.02-1.87,1.07-3.15l-.68-2.78c-.45-1.86-1.34-3.2-2.67-4.02-1.33-.82-2.84-1.03-4.54-.61-1.01.25-1.91.91-2.71,1.98-.8,1.08-1.54,2.42-2.22,4.01l-4.73-1Zm12.37,20.46c.36,1.47.72,2.68,1.1,3.63.37.95.82,1.7,1.34,2.22.52.53,1.12.85,1.8.97.68.12,1.49.07,2.42-.16s1.68-.9,2.24-2.02c.57-1.12.85-2.44.85-3.96l-2.8-11.49c-.33.33-.68.62-1.05.87-.37.25-.77.52-1.19.78-1,.61-1.83,1.3-2.51,2.06-.67.76-1.21,1.55-1.61,2.36-.4.81-.64,1.63-.72,2.45-.09.82-.05,1.58.12,2.27Z"></path>
    <path class="cls-1" d="m237.44,38.73l.75,8.09,4.99-.47.37,3.98-4.99.47,2.57,27.59c.06.59.21,1.21.47,1.84.26.64.59,1.2,1,1.71s.88.9,1.43,1.19c.55.29,1.16.4,1.83.34.67-.06,1.28-.27,1.83-.62.55-.35,1.1-.97,1.66-1.86l1.91,3.72c-2.29,2.09-4.58,3.24-6.88,3.46-3.61.34-6.45-.42-8.55-2.26-2.09-1.84-3.29-4.39-3.59-7.64l-2.48-26.64-2.97.28-.37-3.92c5.31-.49,8.12-3.58,8.43-9.24h2.58Z"></path>
    <path class="cls-1" d="m261.45,45.74l-.67,41.14-8.9-.14.62-38.39,8.94-2.6Zm-4.24-11.18c1.35.02,2.5.52,3.44,1.49.94.97,1.4,2.15,1.38,3.55-.02,1.39-.52,2.56-1.49,3.5-.97.94-2.13,1.4-3.48,1.38-1.39-.02-2.57-.52-3.53-1.49-.96-.97-1.43-2.15-1.41-3.55.02-1.39.53-2.56,1.52-3.5.99-.94,2.18-1.4,3.58-1.38Z"></path>
    <path class="cls-1" d="m265.58,65.77c.38-2.96,1.02-5.67,1.9-8.12.88-2.45,2.09-4.52,3.63-6.18s3.48-2.88,5.8-3.64c2.33-.76,5.13-.93,8.41-.5,4.42.57,7.5,2.78,9.22,6.62,1.73,3.84,2.15,9.13,1.27,15.88-.5,3.83-1.3,7.06-2.4,9.68-1.11,2.63-2.49,4.7-4.15,6.23-1.66,1.53-3.59,2.55-5.79,3.07-2.2.52-4.62.6-7.26.26-4.66-.61-7.83-2.83-9.52-6.69-1.69-3.85-2.06-9.39-1.12-16.61Zm13.89,19.15c1.22.16,2.25-.03,3.08-.56.83-.53,1.53-1.44,2.1-2.71.57-1.27,1.04-2.91,1.42-4.93.38-2.02.75-4.41,1.11-7.17.28-2.13.37-4.23.28-6.29s-.37-3.93-.83-5.62c-.46-1.69-1.12-3.08-1.96-4.17-.84-1.09-1.87-1.72-3.1-1.88-.87-.11-1.65.04-2.35.45-.7.41-1.33,1.18-1.9,2.31-.57,1.13-1.09,2.65-1.56,4.55-.47,1.91-.89,4.28-1.26,7.12-.75,5.76-.72,10.27.11,13.53.82,3.26,2.44,5.04,4.84,5.36Z"></path>
    <path class="cls-1" d="m314.96,53.98l-.87,2.73c1.25-.9,2.6-1.35,4.07-1.36,1.47-.01,2.86.19,4.19.62,1.55.5,2.91,1.2,4.06,2.11s2.07,1.96,2.76,3.14c.69,1.18,1.1,2.48,1.23,3.9.13,1.42-.05,2.89-.53,4.41l-9.4,29.41-8.47-2.71,9.11-28.5c.58-1.82.65-3.47.2-4.95-.45-1.48-1.33-2.43-2.66-2.86-.57-.18-1.17-.2-1.8-.04-.63.15-1.23.43-1.8.83-.57.4-1.1.95-1.59,1.63-.49.68-.87,1.44-1.13,2.27l-9.2,28.78-8.42-2.69,11.69-36.57,8.57-.14Z"></path>
    <path class="cls-1" d="m386.9,79.04l-4.47,6.85-.6-.39c.86-2.77.6-4.6-.77-5.49l-3.5-2.28-25.41,38.96-7.5-4.89,25.41-38.96-4-2.61c-1.23-.8-2.92-.26-5.05,1.62l-.55-.36,4.44-6.8,22.01,14.35Z"></path>
    <path class="cls-1" d="m400.02,102.19c1.61,1.48,2.64,3.17,3.09,5.07.45,1.9.44,3.89-.02,5.98s-1.31,4.2-2.56,6.32c-1.25,2.12-2.77,4.17-4.58,6.13l-15.13-13.89-1.25,1.36c-.83.91-1.78,2.1-2.85,3.59-1.06,1.48-1.95,3.05-2.65,4.7-.7,1.65-1.06,3.28-1.08,4.89-.02,1.61.62,3,1.91,4.19.91.83,2.04,1.22,3.39,1.16,1.35-.06,2.98-.51,4.89-1.35l1.56,3.95c-2.85,1.11-5.51,1.55-7.97,1.31-2.46-.23-4.84-1.4-7.12-3.5-1.64-1.51-2.78-3.26-3.42-5.24s-.82-4.08-.56-6.27c.26-2.19.95-4.44,2.08-6.72,1.13-2.29,2.65-4.47,4.56-6.56,2.02-2.2,4.24-4.02,6.68-5.46,2.43-1.44,4.89-2.41,7.38-2.92,2.49-.5,4.91-.5,7.29,0,2.37.5,4.5,1.59,6.37,3.26Zm-6.04,14.97c.51-.67,1.12-1.48,1.84-2.45s1.31-1.97,1.77-3.03c.46-1.06.7-2.13.71-3.2s-.42-2.01-1.3-2.82c-.85-.78-1.79-1.25-2.81-1.4-1.02-.15-2.08-.07-3.18.24-1.1.32-2.2.83-3.29,1.56-1.1.72-2.13,1.56-3.11,2.5l9.37,8.6Z"></path>
    <path class="cls-1" d="m424.57,129.55c1.68,2.18,2.49,4.3,2.45,6.36-.04,2.07-.8,4.17-2.27,6.31l-3.94-2.47c.77-1.35,1.25-2.63,1.44-3.86.19-1.22-.07-2.29-.78-3.21-1.63-2.11-3.95-2.85-6.97-2.2-3.02.64-6.71,2.64-11.06,5.99-1.95,1.51-3.64,3.04-5.05,4.6-1.41,1.56-2.48,3.09-3.21,4.59s-1.1,2.92-1.11,4.28c0,1.36.42,2.59,1.26,3.7.8,1.04,1.88,1.62,3.22,1.74,1.35.12,3.02-.02,5.03-.41l.83,4.11c-3.17.58-5.94.51-8.3-.2-2.36-.72-4.43-2.23-6.2-4.53-1.43-1.86-2.3-3.84-2.61-5.94-.31-2.1-.11-4.24.6-6.42.71-2.18,1.89-4.33,3.54-6.46,1.65-2.13,3.72-4.15,6.22-6.07,5.52-4.25,10.59-6.32,15.22-6.22,4.63.1,8.52,2.21,11.68,6.31Z"></path>
    <path class="cls-1" d="m448.95,148.54l-11.8,6.29c.84.05,1.59.26,2.26.62.67.37,1.27.8,1.81,1.3.54.5,1.01,1.05,1.42,1.65.41.59.74,1.14,1,1.63.84,1.58,1.31,3.09,1.4,4.53.09,1.44-.09,2.77-.55,3.98-.46,1.21-1.16,2.32-2.12,3.33-.95,1-2.06,1.84-3.33,2.52l-27.08,14.44-4.16-7.8,26.24-13.99c.67-.36,1.26-.84,1.79-1.46.53-.62.92-1.27,1.19-1.95.27-.68.41-1.38.44-2.1.03-.71-.12-1.37-.44-1.97-.37-.7-.89-1.18-1.55-1.44-.66-.26-1.38-.36-2.16-.3s-1.57.23-2.36.52c-.79.29-1.53.61-2.19.97l-25.34,13.51-4.19-7.85,43.1-22.98,6.61,6.56Z"></path>
    <path class="cls-1" d="m454.02,184.75l-2.72.9c1.46.48,2.62,1.31,3.5,2.49.87,1.18,1.53,2.43,1.97,3.75.51,1.55.74,3.06.68,4.52-.06,1.47-.36,2.83-.91,4.08-.55,1.25-1.36,2.35-2.43,3.29-1.07.94-2.36,1.66-3.88,2.16l-29.31,9.7-2.8-8.45,28.4-9.4c1.81-.6,3.19-1.52,4.12-2.75s1.18-2.51.74-3.83c-.19-.57-.53-1.06-1.03-1.48-.5-.42-1.07-.74-1.73-.97-.66-.22-1.41-.33-2.25-.33-.84,0-1.67.15-2.5.42l-28.68,9.5-2.78-8.39,36.45-12.07,5.16,6.85Z"></path>
    <path class="cls-1" d="m463.14,219.04l-40.35,8.06-1.74-8.72,37.65-7.52,4.44,8.19Zm10.03-6.51c.27,1.33.02,2.55-.73,3.68s-1.81,1.82-3.17,2.1c-1.37.27-2.61.03-3.74-.72-1.12-.75-1.82-1.79-2.08-3.12-.27-1.37-.04-2.62.71-3.76.75-1.14,1.8-1.85,3.17-2.12,1.36-.27,2.61-.03,3.74.74,1.13.77,1.83,1.84,2.1,3.2Z"></path>
    <path class="cls-1" d="m466.11,240.14c.12,1.63-.24,3.12-1.08,4.48-.84,1.36-1.88,2.56-3.12,3.61l4.94,2.03-2.33,4.12-49.55,3.64-.66-8.93,13.46-.99c-1.41-.66-2.45-1.64-3.12-2.94-.67-1.31-1.07-2.78-1.19-4.4-.3-4.09,1.33-7.28,4.89-9.58s8.68-3.69,15.35-4.18c3.02-.22,5.85-.1,8.5.36,2.65.46,4.97,1.25,6.97,2.36,2,1.11,3.61,2.54,4.83,4.28,1.23,1.75,1.93,3.79,2.1,6.13Zm-4.17.31c-.07-.99-.56-1.84-1.44-2.53-.89-.69-2.07-1.24-3.53-1.63-1.47-.39-3.15-.64-5.05-.74-1.9-.1-3.93-.07-6.07.09-3.3.24-6.04.58-8.22,1.02-2.18.44-3.93.98-5.24,1.61-1.31.64-2.22,1.34-2.72,2.12-.5.78-.72,1.62-.65,2.53.06.83.39,1.54.99,2.11.6.57,1.34,1.05,2.23,1.42.89.37,1.86.63,2.93.77,1.07.14,2.1.17,3.09.1l17.21-1.27c.6-.04,1.28-.22,2.06-.54.77-.32,1.5-.72,2.19-1.21.68-.49,1.24-1.07,1.67-1.74.43-.67.62-1.38.56-2.14Z"></path>
    <path class="cls-1" d="m466.03,272l-30.6-3.01c-2.02-.2-3.71.07-5.06.82-1.35.75-2.1,1.85-2.25,3.32-.07.75.05,1.42.37,2.02.32.59.76,1.1,1.32,1.54.56.43,1.18.79,1.88,1.06.69.27,1.38.44,2.05.5l28.64,2.82,1.87,9.06-41.18-4.05.71-7.19,2.93-.49c-1.34-1.05-2.24-2.28-2.7-3.69-.46-1.41-.61-2.9-.46-4.49.16-1.58.56-3.03,1.21-4.32.65-1.3,1.5-2.39,2.54-3.29,1.05-.9,2.26-1.57,3.65-2.01,1.38-.44,2.91-.58,4.57-.42l28.64,2.82,1.87,9Z"></path>
    <path class="cls-1" d="m458.26,315.22c-.59,2.11-1.64,3.79-3.13,5.05-1.49,1.26-3.27,2.15-5.35,2.68-2.07.53-4.34.72-6.8.57-2.46-.15-4.97-.59-7.54-1.31l5.56-19.77-1.78-.5c-1.19-.33-2.68-.64-4.49-.92-1.8-.28-3.6-.36-5.39-.24-1.79.12-3.41.53-4.85,1.24-1.44.71-2.4,1.91-2.87,3.6-.33,1.19-.17,2.37.49,3.55.66,1.18,1.8,2.43,3.41,3.75l-2.82,3.18c-2.28-2.05-3.87-4.22-4.77-6.52-.9-2.3-.94-4.95-.09-7.94.6-2.15,1.65-3.95,3.14-5.41,1.49-1.46,3.27-2.58,5.34-3.34,2.08-.76,4.39-1.15,6.94-1.18,2.55-.03,5.19.34,7.91,1.11,2.87.81,5.5,1.97,7.89,3.49,2.39,1.52,4.36,3.27,5.93,5.27,1.57,1.99,2.67,4.16,3.29,6.51.62,2.35.61,4.73-.03,7.16Zm-16.08,1.37c.83.15,1.83.33,3.01.54,1.18.21,2.35.28,3.51.21,1.16-.07,2.21-.34,3.18-.81.96-.47,1.6-1.29,1.93-2.44.31-1.11.31-2.16-.02-3.14-.32-.98-.87-1.89-1.65-2.73-.78-.84-1.74-1.58-2.88-2.24-1.14-.65-2.35-1.2-3.63-1.64l-3.44,12.24Z"></path>
    <path class="cls-1" d="m445.88,347.4c-1.01,2.12-2.33,3.74-3.96,4.86-1.63,1.12-3.71,1.72-6.21,1.81l-1.25-4.89c1.67-.27,3.09-.65,4.28-1.14,1.18-.5,1.99-1.19,2.41-2.09.29-.61.44-1.25.44-1.9,0-.66-.1-1.29-.32-1.9-.22-.61-.55-1.16-1-1.66-.45-.5-.96-.89-1.53-1.16-1.33-.63-2.55-.86-3.65-.67-1.1.18-2.16.57-3.17,1.17s-2,1.32-2.95,2.17c-.95.85-1.93,1.63-2.93,2.34-.91.62-1.89,1.11-2.94,1.45-1.04.34-2.1.54-3.15.58-1.06.05-2.11-.02-3.14-.2-1.04-.18-1.99-.48-2.85-.89-1.73-.82-3.16-1.85-4.31-3.1-1.15-1.25-1.98-2.66-2.49-4.22-.51-1.57-.67-3.27-.48-5.12.2-1.85.76-3.76,1.7-5.74,1.09-2.3,2.69-4.09,4.79-5.36,2.1-1.27,4.81-1.78,8.13-1.53l.75,5.25c-.91-.04-1.84,0-2.8.12-.96.12-1.85.31-2.66.59-.81.27-1.54.61-2.17,1.02-.63.4-1.09.91-1.38,1.52-.31.65-.45,1.35-.44,2.11.02.76.17,1.49.47,2.21.3.71.7,1.37,1.21,1.97.51.59,1.11,1.05,1.79,1.38,1.01.48,2.17.55,3.5.21,1.33-.34,2.51-.9,3.54-1.69,1.26-.99,2.53-1.94,3.8-2.85,1.27-.92,2.61-1.64,4-2.16,1.4-.53,2.88-.78,4.46-.76,1.58.02,3.3.48,5.17,1.36,1.8.85,3.24,1.91,4.31,3.17,1.08,1.26,1.82,2.64,2.23,4.14.41,1.5.51,3.06.28,4.69-.22,1.63-.73,3.28-1.52,4.93Z"></path>
  </g>
</svg><style>@media (prefers-color-scheme: light) { :root { filter: none; } }
@media (prefers-color-scheme: dark) { :root { filter: none; } }
</style></svg>