<svg width="137" height="56" viewBox="0 0 137 56" fill="none" xmlns="http://www.w3.org/2000/svg">
<g clip-path="url(#clip0_84_5)">
<path d="M32.5333 21.5668C32.2663 21.804 32.0051 22.0492 31.752 22.3023C31.5308 22.5236 31.3175 22.7488 31.1122 22.978C31.0006 23.1036 30.8889 23.2292 30.7793 23.3588C30.3089 23.9149 29.8744 24.4949 29.4817 25.0988C28.8858 26.0137 28.3815 26.9785 27.9749 27.9851C27.2693 29.7212 26.8527 31.5749 26.747 33.4884C26.7291 33.8073 26.7211 34.1282 26.7211 34.4511V43.9329H29.1708V34.4511C29.1708 34.1282 29.1807 33.8073 29.2027 33.4884C29.3322 31.4991 29.8565 29.6175 30.6996 27.9213C31.0982 27.122 31.5666 26.3626 32.0968 25.653C32.1726 25.5513 32.2503 25.4497 32.33 25.35C32.7945 24.76 33.3027 24.2079 33.8509 23.6956C36.4839 21.234 40.0199 19.7251 43.8987 19.7251V17.2754C39.6711 17.2754 35.6767 18.7922 32.5353 21.5708L32.5333 21.5668Z" fill="#F3CC2C"/>
<path d="M35.6866 28.1864C34.7259 29.8507 34.1479 31.7662 34.0741 33.8053C34.0701 33.9508 34.0661 34.0983 34.0661 34.2458V52.8188C34.0661 52.8188 34.0741 52.8188 34.0801 52.8148C34.9093 52.6115 35.7225 52.3683 36.5158 52.0853V34.2458C36.5158 34.1083 36.5178 33.9708 36.5238 33.8332C36.741 28.6687 41.0105 24.5348 46.2268 24.5348V22.0851C41.7241 22.0851 37.7875 24.5427 35.6826 28.1884L35.6866 28.1864Z" fill="#EBF5EF"/>
<path d="M32.9439 13.859C31.158 14.6144 29.4937 15.5911 27.9748 16.7751C27.3171 17.2874 26.6852 17.8375 26.0833 18.4275C26.0235 18.4873 25.9637 18.5451 25.9039 18.6049C25.8162 18.6926 25.7285 18.7823 25.6408 18.872C25.0647 19.466 24.5246 20.0899 24.0243 20.7396C23.815 21.0107 23.6117 21.2858 23.4144 21.5668C23.0915 22.0253 22.7885 22.4957 22.5035 22.9781C22.3639 23.2133 22.2284 23.4504 22.0988 23.6916C21.8058 24.2298 21.5347 24.7819 21.2856 25.346C21.2417 25.4457 21.1979 25.5453 21.156 25.645C20.8032 26.4782 20.5043 27.3253 20.2591 28.1884C19.7369 30.0162 19.4558 31.9058 19.4199 33.8332C19.416 33.9767 19.416 34.1222 19.416 34.2658V52.0813C19.416 52.0813 19.4239 52.0853 19.4299 52.0873C20.2252 52.3703 21.0364 52.6135 21.8656 52.8168V34.2677C21.8656 34.1143 21.8656 33.9608 21.8716 33.8073C21.9174 31.7523 22.2822 29.775 22.916 27.9193C23.1811 27.1399 23.4961 26.3825 23.8529 25.651C23.9445 25.4656 24.0362 25.2822 24.1339 25.0989C24.4508 24.4989 24.7957 23.9189 25.1704 23.3588C25.3219 23.1295 25.4793 22.9043 25.6408 22.6831C26.1371 22.0014 26.6773 21.3516 27.2573 20.7396C27.4905 20.4945 27.7277 20.2533 27.9728 20.0201C28.5688 19.45 29.2007 18.9198 29.8644 18.4275C33.1373 16.0037 37.1855 14.5686 41.5626 14.5686V12.1189C38.5728 12.1189 35.6727 12.7049 32.9419 13.859H32.9439Z" fill="#A9CF3B"/>
<path d="M36.5258 33.8312C36.4899 31.9037 36.2088 30.0142 35.6866 28.1844C35.4415 27.3233 35.1425 26.4762 34.7897 25.643C34.7478 25.5433 34.704 25.4437 34.6601 25.344C34.411 24.7799 34.1419 24.2278 33.8469 23.6896C33.7173 23.4484 33.5818 23.2112 33.4423 22.976C33.1572 22.4937 32.8523 22.0233 32.5314 21.5648C32.336 21.2858 32.1327 21.0087 31.9214 20.7376C31.4191 20.0878 30.881 19.4659 30.3049 18.87C30.2172 18.7803 30.1315 18.6906 30.0418 18.6029C29.982 18.5431 29.9222 18.4853 29.8624 18.4255C29.2605 17.8375 28.6286 17.2853 27.9709 16.7731C26.452 15.5891 24.7877 14.6124 23.0018 13.857C20.2711 12.7009 17.3709 12.1169 14.3811 12.1169V14.5666C18.7582 14.5666 22.8044 16.0017 26.0793 18.4255C26.743 18.9158 27.3749 19.448 27.9709 20.0181C28.216 20.2513 28.4552 20.4905 28.6864 20.7376C29.2665 21.3496 29.8066 21.9994 30.3029 22.681C30.4644 22.9023 30.6218 23.1275 30.7733 23.3567C31.1481 23.9168 31.4929 24.4969 31.8098 25.0968C31.9055 25.2782 31.9992 25.4636 32.0908 25.649C32.4476 26.3805 32.7606 27.1379 33.0277 27.9173C33.6615 29.771 34.0243 31.7483 34.0721 33.8033C34.0761 33.9568 34.0781 34.1103 34.0781 34.2637V52.8128C34.9073 52.6095 35.7205 52.3663 36.5138 52.0833C36.5178 52.0833 36.5238 52.0793 36.5278 52.0773V34.2617C36.5278 34.1162 36.5278 33.9727 36.5238 33.8292L36.5258 33.8312Z" fill="#EBF5EF"/>
<path d="M29.2007 33.4864C29.097 31.5729 28.6785 29.7192 27.9749 27.9831C27.5662 26.9785 27.062 26.0118 26.468 25.0989C26.0753 24.4949 25.6428 23.9149 25.1704 23.3588C25.0608 23.2312 24.9511 23.1036 24.8375 22.9781C24.6302 22.7488 24.417 22.5236 24.1977 22.3024C23.9426 22.0472 23.6834 21.804 23.4164 21.5668C20.275 18.7903 16.2806 17.2714 12.053 17.2714V19.7211C15.9338 19.7211 19.4678 21.23 22.1008 23.6916C22.649 24.2039 23.1572 24.756 23.6217 25.346C23.7014 25.4457 23.7771 25.5473 23.8549 25.649C24.3851 26.3586 24.8535 27.118 25.2521 27.9173C26.0952 29.6155 26.6215 31.4972 26.749 33.4864C26.769 33.8033 26.7809 34.1242 26.7809 34.4491V43.931H29.2306V34.4491C29.2306 34.1262 29.2226 33.8073 29.2047 33.4864H29.2007Z" fill="#F3CC2C"/>
<path d="M21.8736 33.8033C21.7998 31.7642 21.2218 29.8507 20.2611 28.1864C18.1582 24.5407 14.2196 22.0831 9.71695 22.0831V24.5328C14.9332 24.5328 19.2027 28.6667 19.4199 33.8312C19.4259 33.9687 19.4279 34.1063 19.4279 34.2438V52.0833C20.2232 52.3663 21.0345 52.6095 21.8636 52.8128C21.8676 52.8128 21.8716 52.8148 21.8776 52.8168V34.2438C21.8776 34.0963 21.8756 33.9508 21.8696 33.8033H21.8736Z" fill="#A9CF3B"/>
<path d="M27.9748 2.49754C42.0709 2.49754 53.5 13.9248 53.5 28.0229C53.5 39.1193 46.4201 48.5613 36.5317 52.0793C36.5278 52.0793 36.5238 52.0833 36.5178 52.0853C35.7225 52.3683 34.9113 52.6115 34.0821 52.8148C34.0781 52.8148 34.0741 52.8168 34.0681 52.8188C32.1168 53.2972 30.0757 53.5503 27.9748 53.5503C25.874 53.5503 23.8329 53.2972 21.8816 52.8188C21.8776 52.8188 21.8716 52.8168 21.8676 52.8148C21.0384 52.6115 20.2252 52.3683 19.4319 52.0853C19.4279 52.0853 19.4239 52.0813 19.4179 52.0793C9.52958 48.5632 2.44967 39.1193 2.44967 28.0249C2.44967 13.9268 13.8788 2.49754 27.9748 2.49754ZM27.9748 0.0478516C24.1997 0.0478516 20.5361 0.787343 17.0859 2.24639C13.7552 3.65561 10.7634 5.67277 8.19413 8.24006C5.62487 10.8093 3.60972 13.7992 2.20052 17.1319C0.739485 20.5842 0 24.2477 0 28.0249C0 30.9988 0.46442 33.9289 1.3813 36.7314C2.26828 39.4422 3.56587 41.9975 5.2342 44.3236C6.88259 46.6198 8.86186 48.647 11.1162 50.3532C13.3865 52.0713 15.8939 53.4248 18.5649 54.3775C18.5649 54.3775 18.5688 54.3775 18.5708 54.3795L18.5908 54.3875L18.6107 54.3955C19.4777 54.7044 20.3707 54.9715 21.2657 55.1908C21.2736 55.1908 21.2796 55.1947 21.2876 55.1967H21.2936L21.2996 55.1987C23.4722 55.7309 25.7185 56.002 27.9768 56.002C30.2352 56.002 32.4576 55.7349 34.6202 55.2067C34.6501 55.2007 34.678 55.1927 34.7079 55.1848C35.5949 54.9655 36.4799 54.7004 37.341 54.3955L37.3609 54.3875L37.3808 54.3795C37.3808 54.3795 37.3848 54.3795 37.3868 54.3775C40.0577 53.4248 42.5632 52.0693 44.8355 50.3532C47.0898 48.649 49.0691 46.6198 50.7175 44.3236C52.3878 41.9975 53.6834 39.4442 54.5704 36.7314C55.4873 33.9289 55.9517 30.9988 55.9517 28.0249C55.9517 24.2497 55.2122 20.5862 53.7532 17.1359C52.344 13.8052 50.3268 10.8133 47.7595 8.24404C45.1903 5.67476 42.2005 3.6596 38.8678 2.25038C35.4135 0.789336 31.75 0.0478516 27.9748 0.0478516Z" fill="#EBF5EF"/>
<path d="M69.5335 0.29303L72.5213 9.22472L75.4454 0.29303H77.1675V14.0324H74.7796V5.1645L72.0031 13.6916L68.9654 5.019V14.0324H67.5682V0.29303H69.5335Z" fill="#EBF5EF"/>
<path d="M78.1422 8.41346C78.1422 7.60221 78.2179 6.84876 78.3694 6.15512C78.5209 5.46147 78.776 4.8635 79.1328 4.3612C79.4896 3.85692 79.97 3.46226 80.5699 3.17523C81.1699 2.8882 81.9213 2.74469 82.8203 2.74469C84.0322 2.74469 84.9391 3.23104 85.541 4.20573C86.141 5.18043 86.442 6.59363 86.442 8.44535C86.442 9.49578 86.3383 10.3947 86.133 11.1422C85.9277 11.8897 85.6267 12.4976 85.2321 12.97C84.8374 13.4404 84.3531 13.7852 83.779 14.0005C83.205 14.2178 82.5552 14.3254 81.8297 14.3254C80.552 14.3254 79.6172 13.8351 79.0272 12.8564C78.4372 11.8757 78.1422 10.3967 78.1422 8.41545V8.41346ZM82.5592 13.0916C82.894 13.0916 83.1651 13.0059 83.3704 12.8325C83.5757 12.6591 83.7332 12.392 83.8408 12.0292C83.9484 11.6664 84.0202 11.206 84.0521 10.6479C84.084 10.0898 84.0999 9.432 84.0999 8.67457C84.0999 8.09055 84.0521 7.52049 83.9544 6.96836C83.8568 6.41623 83.7152 5.91992 83.5319 5.4814C83.3485 5.04289 83.1233 4.69208 82.8582 4.42499C82.5931 4.15989 82.2921 4.02634 81.9572 4.02634C81.718 4.02634 81.5127 4.09411 81.3393 4.22965C81.1659 4.36519 81.0224 4.59441 80.9088 4.91931C80.7952 5.24421 80.7075 5.67276 80.6497 6.20296C80.5899 6.73316 80.56 7.38893 80.56 8.16829C80.56 9.74893 80.7274 10.9648 81.0643 11.8139C81.3991 12.665 81.8974 13.0896 82.5592 13.0896V13.0916Z" fill="#EBF5EF"/>
<path d="M94.7397 0V14.0324H92.9538L92.7107 13.1075C92.4934 13.4862 92.1984 13.7852 91.8257 14.0005C91.4529 14.2178 90.9287 14.3254 90.259 14.3254C89.7826 14.3254 89.3501 14.1659 88.9594 13.847C88.5687 13.5281 88.2319 13.0816 87.9449 12.5076C87.6578 11.9335 87.4366 11.2439 87.2791 10.4366C87.1217 9.62933 87.0439 8.74433 87.0439 7.7816C87.0439 7.21951 87.1017 6.63947 87.2153 6.0435C87.329 5.44752 87.5163 4.90735 87.7754 4.41901C88.0346 3.93266 88.3714 3.53202 88.782 3.21708C89.1926 2.90415 89.6969 2.74668 90.2929 2.74668C90.5958 2.74668 90.851 2.76661 91.0563 2.80448C91.2616 2.84236 91.437 2.89617 91.5845 2.96594C91.73 3.0357 91.8615 3.11942 91.9752 3.21708C92.0888 3.31475 92.2044 3.4184 92.324 3.52604V0.747464L94.7437 0H94.7397ZM90.8091 4.04428C90.3427 4.04428 89.9939 4.31536 89.7607 4.85553C89.5275 5.39769 89.4119 6.15512 89.4119 7.12981C89.4119 7.67197 89.4497 8.27991 89.5255 8.95761C89.6012 9.63531 89.7148 10.2731 89.8663 10.8731C90.0178 11.4731 90.2151 11.9794 90.4583 12.392C90.7015 12.8046 90.9865 13.0099 91.3114 13.0099C91.441 13.0099 91.5685 12.9401 91.6921 12.7986C91.8157 12.6571 91.9253 12.4876 92.017 12.2863C92.1087 12.087 92.1824 11.8757 92.2363 11.6525C92.2901 11.4312 92.318 11.2379 92.318 11.0764V6.44812C92.318 6.27471 92.2801 6.04947 92.2044 5.77441C92.1286 5.49735 92.023 5.23225 91.8875 4.97911C91.7519 4.72397 91.5925 4.50472 91.4091 4.32134C91.2257 4.13796 91.0244 4.04428 90.8091 4.04428Z" fill="#EBF5EF"/>
<path d="M100.279 2.74467C100.875 2.74467 101.391 2.89416 101.83 3.19115C102.268 3.48815 102.633 3.88879 102.926 4.39308C103.219 4.89737 103.434 5.4754 103.576 6.13118C103.717 6.78695 103.787 7.47661 103.787 8.20215H98.2V8.70644C98.2 9.04131 98.2299 9.4559 98.2897 9.94823C98.3495 10.4406 98.4611 10.9169 98.6225 11.3774C98.784 11.8378 99.0132 12.2305 99.3042 12.5554C99.5972 12.8803 99.9799 13.0417 100.458 13.0417C100.793 13.0417 101.092 12.9122 101.351 12.6511C101.61 12.3899 101.856 12.0013 102.083 11.481L103.121 11.9853C102.752 12.7328 102.302 13.3088 101.766 13.7154C101.23 14.1221 100.54 14.3254 99.6949 14.3254C99.089 14.3254 98.5388 14.1839 98.0465 13.9028C97.5542 13.6218 97.1316 13.2371 96.7788 12.7487C96.426 12.2624 96.1529 11.6843 95.9596 11.0186C95.7663 10.3529 95.6666 9.63529 95.6666 8.8659C95.6666 8.05465 95.7782 7.27928 95.9995 6.54378C96.2207 5.80827 96.5356 5.16047 96.9423 4.60237C97.3489 4.04426 97.8352 3.59777 98.4033 3.26291C98.9714 2.92805 99.5972 2.75464 100.279 2.74268V2.74467ZM101.822 6.85273C101.8 6.6255 101.774 6.34844 101.74 6.02354C101.708 5.69865 101.64 5.3877 101.537 5.08872C101.433 4.79172 101.285 4.5346 101.09 4.31733C100.895 4.10007 100.636 3.99244 100.311 3.99244C99.9859 3.99244 99.7228 4.07017 99.4916 4.22764C99.2584 4.3851 99.061 4.59639 98.8996 4.86149C98.7381 5.12659 98.6126 5.43355 98.5269 5.77838C98.4392 6.1252 98.3853 6.48199 98.3654 6.85074H101.826L101.822 6.85273Z" fill="#EBF5EF"/>
<path d="M107.034 2.84236V4.20573C107.154 3.8908 107.283 3.63965 107.425 3.4503C107.566 3.26094 107.714 3.11145 107.871 3.00381C108.029 2.89618 108.188 2.82442 108.349 2.79253C108.511 2.76064 108.668 2.74469 108.82 2.74469C109.274 2.74469 109.729 2.97192 110.183 3.42638L109.047 4.93725C108.949 4.88343 108.844 4.83958 108.73 4.80769C108.617 4.7758 108.467 4.75985 108.284 4.75985C108.142 4.75985 107.999 4.81367 107.853 4.92131C107.708 5.02894 107.572 5.18641 107.447 5.39171C107.321 5.59701 107.221 5.84617 107.146 6.13917C107.07 6.43218 107.032 6.75708 107.032 7.11387V14.0324H104.628V3.58982L107.032 2.84236H107.034Z" fill="#EBF5EF"/>
<path d="M113.173 2.84236V3.62171C113.422 3.28685 113.735 3.05563 114.116 2.93205C114.495 2.80847 114.873 2.74469 115.252 2.74469C115.696 2.74469 116.105 2.81445 116.478 2.95597C116.851 3.09749 117.175 3.29084 117.452 3.53999C117.73 3.78915 117.943 4.09212 118.094 4.44891C118.246 4.8057 118.322 5.20235 118.322 5.63488V14.0324H115.902V5.896C115.902 5.37576 115.782 4.94323 115.545 4.59641C115.306 4.24958 114.999 4.07617 114.62 4.07617C114.459 4.07617 114.301 4.12202 114.15 4.21371C113.998 4.30539 113.865 4.42698 113.751 4.57847C113.637 4.72995 113.546 4.91333 113.474 5.13059C113.404 5.34786 113.368 5.57509 113.368 5.81228V14.0304H110.965V3.58982L113.173 2.84236Z" fill="#EBF5EF"/>
<path d="M123.829 2.74467C124.425 2.74467 124.941 2.89416 125.38 3.19115C125.818 3.48815 126.183 3.88879 126.476 4.39308C126.769 4.89737 126.984 5.4754 127.126 6.13118C127.267 6.78695 127.337 7.47661 127.337 8.20215H121.75V8.70644C121.75 9.04131 121.78 9.4559 121.84 9.94823C121.899 10.4406 122.011 10.9169 122.172 11.3774C122.334 11.8378 122.563 12.2305 122.854 12.5554C123.147 12.8803 123.53 13.0417 124.008 13.0417C124.343 13.0417 124.642 12.9122 124.901 12.6511C125.16 12.3899 125.405 12.0013 125.633 11.481L126.671 11.9853C126.302 12.7328 125.852 13.3088 125.316 13.7154C124.78 14.1221 124.09 14.3254 123.245 14.3254C122.639 14.3254 122.089 14.1839 121.596 13.9028C121.104 13.6218 120.682 13.2371 120.329 12.7487C119.976 12.2624 119.703 11.6843 119.51 11.0186C119.314 10.3529 119.216 9.63529 119.216 8.8659C119.216 8.05465 119.328 7.27928 119.549 6.54378C119.771 5.80827 120.086 5.16047 120.492 4.60237C120.899 4.04426 121.385 3.59777 121.953 3.26291C122.521 2.92805 123.147 2.75464 123.829 2.74268V2.74467ZM125.372 6.85273C125.35 6.6255 125.324 6.34844 125.29 6.02354C125.258 5.69865 125.19 5.3877 125.087 5.08872C124.983 4.79172 124.835 4.5346 124.64 4.31733C124.445 4.10007 124.186 3.99244 123.861 3.99244C123.536 3.99244 123.273 4.07017 123.041 4.22764C122.808 4.3851 122.611 4.59639 122.45 4.86149C122.288 5.12659 122.162 5.43355 122.077 5.77838C121.989 6.1252 121.935 6.48199 121.915 6.85074H125.376L125.372 6.85273Z" fill="#EBF5EF"/>
<path d="M69.9879 19.7809V33.5203H67.5682V19.7809H69.9879Z" fill="#EBF5EF"/>
<path d="M73.5139 22.3322V23.6956C73.6335 23.3807 73.7631 23.1295 73.9046 22.9402C74.0461 22.7508 74.1936 22.6013 74.3511 22.4937C74.5086 22.386 74.668 22.3143 74.8295 22.2824C74.9909 22.2505 75.1484 22.2346 75.2999 22.2346C75.7543 22.2346 76.2088 22.4618 76.6632 22.9162L75.5271 24.4271C75.4294 24.3733 75.3238 24.3295 75.2102 24.2976C75.0966 24.2657 74.9471 24.2497 74.7637 24.2497C74.6222 24.2497 74.4787 24.3035 74.3332 24.4112C74.1876 24.5188 74.0521 24.6763 73.9265 24.8816C73.801 25.0869 73.7013 25.336 73.6256 25.629C73.5498 25.922 73.5119 26.2469 73.5119 26.6037V33.5223H71.1081V23.0797L73.5119 22.3322H73.5139Z" fill="#EBF5EF"/>
<path d="M79.8464 22.3322V23.6956C79.966 23.3807 80.0956 23.1295 80.2371 22.9402C80.3786 22.7508 80.5261 22.6013 80.6836 22.4937C80.841 22.386 81.0005 22.3143 81.1619 22.2824C81.3234 22.2505 81.4808 22.2346 81.6323 22.2346C82.0868 22.2346 82.5412 22.4618 82.9957 22.9162L81.8596 24.4271C81.7619 24.3733 81.6562 24.3295 81.5426 24.2976C81.429 24.2657 81.2795 24.2497 81.0961 24.2497C80.9546 24.2497 80.8111 24.3035 80.6656 24.4112C80.5201 24.5188 80.3846 24.6763 80.259 24.8816C80.1334 25.0869 80.0338 25.336 79.958 25.629C79.8823 25.922 79.8444 26.2469 79.8444 26.6037V33.5223H77.4406V23.0797L79.8444 22.3322H79.8464Z" fill="#EBF5EF"/>
<path d="M85.0288 19.3105C85.3975 19.3105 85.7105 19.44 85.9716 19.7012C86.2307 19.9603 86.3622 20.2812 86.3622 20.6599C86.3622 21.0386 86.2327 21.3575 85.9716 21.6187C85.7125 21.8778 85.3975 22.0093 85.0288 22.0093C84.66 22.0093 84.3272 21.8798 84.0621 21.6187C83.797 21.3595 83.6634 21.0386 83.6634 20.6599C83.6634 20.2812 83.795 19.9623 84.0621 19.7012C84.3272 19.442 84.6501 19.3105 85.0288 19.3105ZM86.2307 22.3322V33.5223H83.8109V23.0797L86.2307 22.3322Z" fill="#EBF5EF"/>
<path d="M96.5257 23.1275C96.438 23.6796 96.3084 24.0922 96.135 24.3613C95.9616 24.6324 95.7065 24.7998 95.3716 24.8656C95.4693 25.1586 95.539 25.4536 95.5829 25.7506C95.6267 26.0476 95.6486 26.3546 95.6486 26.6675C95.6486 28.1505 95.2839 29.2288 94.5524 29.8985C93.8209 30.5703 92.7465 30.9051 91.3293 30.9051C91.2416 30.9051 91.136 30.8971 91.0124 30.8812C90.8868 30.8653 90.7573 30.8413 90.6217 30.8074C90.4862 30.7756 90.3547 30.7417 90.2231 30.7098C90.0935 30.6779 89.9839 30.644 89.8982 30.6121C89.8663 30.6779 89.8504 30.7417 89.8504 30.8074C89.8504 30.9589 89.9201 31.1104 90.0617 31.2619C90.2032 31.4134 90.3806 31.5489 90.5978 31.6685C90.8151 31.7881 91.0523 31.8878 91.3134 31.9695C91.5725 32.0512 91.8276 32.0911 92.0768 32.0911L92.1087 32.4818C91.6861 32.5575 91.2915 32.6392 90.9227 32.7249C90.554 32.8126 90.2371 32.9123 89.972 33.0259C89.7069 33.1395 89.4976 33.2651 89.3461 33.3987C89.1946 33.5342 89.1189 33.6877 89.1189 33.8611C89.1189 34.0445 89.1707 34.2179 89.2723 34.3813C89.376 34.5428 89.5095 34.6843 89.679 34.8039C89.8464 34.9235 90.0477 35.0172 90.2789 35.0889C90.5121 35.1587 90.7573 35.1946 91.0184 35.1946C91.3114 35.1946 91.6483 35.1706 92.0329 35.1208C92.4176 35.073 92.7963 35.0092 93.1691 34.9334C93.5418 34.8577 93.8886 34.774 94.2076 34.6823C94.5265 34.5906 94.7676 34.4949 94.9311 34.3973L95.3696 35.356C94.4926 35.7666 93.6215 36.0536 92.7545 36.2171C91.8874 36.3785 91.0543 36.4603 90.253 36.4603C89.7447 36.4603 89.2803 36.4124 88.8637 36.3148C88.4471 36.2171 88.0844 36.0716 87.7754 35.8763C87.4665 35.6809 87.2293 35.4457 87.0599 35.1706C86.8924 34.8936 86.8087 34.5787 86.8087 34.2199C86.8087 33.9488 86.8745 33.6976 87.0041 33.4644C87.1336 33.2312 87.319 33.0239 87.5562 32.8386C87.7934 32.6552 88.0764 32.4977 88.4013 32.3682C88.7262 32.2386 89.077 32.1349 89.4577 32.0592C88.9494 31.9396 88.5827 31.7742 88.3614 31.5629C88.1402 31.3516 88.0286 31.1702 88.0286 31.0187C88.0286 30.8453 88.1262 30.6759 88.3216 30.5065C88.5169 30.339 88.7601 30.2015 89.0531 30.0919C88.489 29.6813 88.0804 29.163 87.8273 28.5411C87.5721 27.9193 87.4465 27.2874 87.4465 26.6496C87.4465 26.0655 87.5502 25.5074 87.7555 24.9772C87.9608 24.447 88.2558 23.9786 88.6405 23.572C89.0252 23.1654 89.4936 22.8405 90.0457 22.5973C90.5978 22.3541 91.2257 22.2325 91.9293 22.2325C92.4715 22.2325 92.9578 22.3362 93.3903 22.5415C93.8229 22.7468 94.2135 23.0398 94.5604 23.4185C94.6799 23.4624 94.8095 23.4843 94.951 23.4843C95.2978 23.4843 95.6068 23.285 95.8759 22.8843L96.5257 23.1275ZM89.7049 25.9858C89.7049 26.3107 89.7407 26.6834 89.8105 27.106C89.8803 27.5286 90.0019 27.9312 90.1753 28.3159C90.3487 28.7006 90.5819 29.0215 90.8729 29.2826C91.1659 29.5417 91.5327 29.6733 91.9771 29.6733C92.4635 29.6733 92.8263 29.5158 93.0654 29.2029C93.3026 28.89 93.4222 28.3538 93.4222 27.5944C93.4222 27.2256 93.3844 26.807 93.3086 26.3366C93.2329 25.8662 93.1053 25.4237 92.9279 25.0131C92.7485 24.6025 92.5153 24.2557 92.2303 23.9746C91.9433 23.6936 91.5885 23.5521 91.1659 23.5521C90.6796 23.5521 90.3128 23.7614 90.0696 24.1779C89.8265 24.5945 89.7049 25.1985 89.7049 25.9898V25.9858Z" fill="#EBF5EF"/>
<path d="M96.8346 24.2477C97.2891 23.5122 97.8252 22.992 98.4431 22.689C99.061 22.386 99.7367 22.2346 100.474 22.2346C100.973 22.2346 101.421 22.3103 101.822 22.4618C102.222 22.6133 102.563 22.8146 102.844 23.0618C103.125 23.3109 103.344 23.6039 103.502 23.9388C103.659 24.2736 103.737 24.6264 103.737 24.9952V31.8479C103.737 32.3243 103.948 32.8824 104.371 33.5203H102.585C102.402 33.3369 102.262 33.1136 102.17 32.8545C102.079 32.5954 102.011 32.3303 101.967 32.0592C101.869 32.3084 101.75 32.5376 101.61 32.7489C101.469 32.9602 101.301 33.1435 101.106 33.301C100.911 33.4585 100.684 33.5821 100.424 33.6737C100.165 33.7654 99.8563 33.8113 99.4995 33.8113C98.9255 33.8113 98.4411 33.7236 98.0465 33.5522C97.6518 33.3787 97.3309 33.1435 97.0877 32.8466C96.8446 32.5496 96.6652 32.1968 96.5516 31.7901C96.438 31.3835 96.3802 30.949 96.3802 30.4826C96.3802 29.6594 96.6811 28.9498 97.2811 28.3558C97.881 27.7598 98.778 27.3552 99.9699 27.1379C100.317 27.0721 100.604 26.9545 100.831 26.7811C101.058 26.6077 101.222 26.3526 101.317 26.0177V25.2384C101.317 24.7181 101.168 24.3075 100.871 24.0046C100.574 23.7016 100.185 23.5501 99.7088 23.5501C99.4278 23.5501 99.1448 23.6657 98.8637 23.8989C98.5827 24.1321 98.2996 24.4371 98.0186 24.8158L96.8326 24.2477H96.8346ZM98.784 30.4527C98.784 30.8653 98.8019 31.2081 98.8398 31.4832C98.8777 31.7602 98.9474 31.9835 99.0511 32.1569C99.1547 32.3303 99.2922 32.4539 99.4657 32.5296C99.6391 32.6054 99.8563 32.6432 100.115 32.6432C100.375 32.6432 100.616 32.5137 100.839 32.2526C101.06 31.9934 101.22 31.6626 101.317 31.2619V28.0468C101.21 28.1126 101.098 28.1664 100.984 28.2083C100.871 28.2521 100.749 28.296 100.62 28.3378C100.317 28.4355 100.052 28.5631 99.8244 28.7186C99.5972 28.876 99.4039 29.0494 99.2484 29.2388C99.0909 29.4282 98.9753 29.6295 98.8996 29.8388C98.8238 30.05 98.786 30.2534 98.786 30.4487L98.784 30.4527Z" fill="#EBF5EF"/>
<path d="M107.977 20.2373V22.4459H109.34V23.5342H107.977V31.0706C107.977 31.232 108.005 31.4035 108.058 31.5829C108.112 31.7622 108.188 31.9237 108.286 32.0692C108.383 32.2147 108.503 32.3343 108.642 32.426C108.784 32.5177 108.945 32.5635 109.129 32.5635C109.312 32.5635 109.484 32.5237 109.641 32.4419C109.799 32.3602 109.964 32.2067 110.137 31.9795L110.56 33.0359C109.888 33.5442 109.238 33.7993 108.611 33.7993C107.626 33.7993 106.872 33.5223 106.352 32.9701C105.832 32.418 105.573 31.6985 105.573 30.8095V23.5342H104.762V22.4618C106.213 22.4618 107.052 21.6984 107.279 20.1716L107.977 20.2373Z" fill="#EBF5EF"/>
<path d="M112.166 19.3105C112.535 19.3105 112.848 19.44 113.109 19.7012C113.368 19.9603 113.5 20.2812 113.5 20.6599C113.5 21.0386 113.37 21.3575 113.109 21.6187C112.85 21.8778 112.535 22.0093 112.166 22.0093C111.798 22.0093 111.465 21.8798 111.2 21.6187C110.935 21.3595 110.801 21.0386 110.801 20.6599C110.801 20.2812 110.933 19.9623 111.2 19.7012C111.465 19.442 111.788 19.3105 112.166 19.3105ZM113.368 22.3322V33.5223H110.949V23.0797L113.368 22.3322Z" fill="#EBF5EF"/>
<path d="M114.327 27.9013C114.327 27.0901 114.403 26.3366 114.554 25.643C114.706 24.9493 114.961 24.3514 115.318 23.8491C115.675 23.3448 116.155 22.9501 116.755 22.6631C117.355 22.3761 118.106 22.2325 119.005 22.2325C120.217 22.2325 121.124 22.7189 121.726 23.6936C122.326 24.6683 122.627 26.0815 122.627 27.9332C122.627 28.9836 122.523 29.8826 122.318 30.6301C122.113 31.3775 121.812 31.9855 121.417 32.4578C121.022 32.9283 120.538 33.2731 119.964 33.4884C119.39 33.7056 118.74 33.8133 118.015 33.8133C116.737 33.8133 115.802 33.3229 115.212 32.3442C114.622 31.3636 114.327 29.8846 114.327 27.9033V27.9013ZM118.744 32.5794C119.079 32.5794 119.35 32.4937 119.555 32.3203C119.761 32.1469 119.918 31.8798 120.026 31.517C120.133 31.1543 120.205 30.6938 120.237 30.1357C120.269 29.5776 120.285 28.9199 120.285 28.1624C120.285 27.5784 120.237 27.0083 120.139 26.4562C120.042 25.9041 119.9 25.4078 119.717 24.9693C119.533 24.5307 119.308 24.1799 119.043 23.9128C118.778 23.6477 118.477 23.5142 118.142 23.5142C117.903 23.5142 117.698 23.582 117.524 23.7175C117.351 23.853 117.207 24.0823 117.094 24.4072C116.98 24.7321 116.892 25.1606 116.835 25.6908C116.775 26.221 116.745 26.8768 116.745 27.6561C116.745 29.2368 116.912 30.4527 117.249 31.3018C117.584 32.1529 118.082 32.5774 118.744 32.5774V32.5794Z" fill="#EBF5EF"/>
<path d="M125.792 22.3322V23.1116C126.041 22.7767 126.354 22.5455 126.735 22.4219C127.114 22.2983 127.492 22.2346 127.871 22.2346C128.316 22.2346 128.724 22.3043 129.097 22.4458C129.47 22.5874 129.795 22.7807 130.072 23.0299C130.349 23.279 130.562 23.582 130.713 23.9388C130.865 24.2956 130.941 24.6922 130.941 25.1248V33.5223H128.521V25.3859C128.521 24.8656 128.401 24.4331 128.164 24.0863C127.925 23.7395 127.618 23.566 127.239 23.566C127.078 23.566 126.92 23.6119 126.769 23.7036C126.617 23.7953 126.484 23.9168 126.37 24.0683C126.257 24.2198 126.165 24.4032 126.093 24.6205C126.023 24.8377 125.987 25.065 125.987 25.3022V33.5203H123.584V23.0777L125.792 22.3302V22.3322Z" fill="#EBF5EF"/>
<path d="M74.2773 39.2708V41.4952H74.082C73.8648 40.7378 73.5359 40.3591 73.0914 40.3591H71.9552V53.0101H69.5195V40.3591H68.22C67.8193 40.3591 67.5163 40.7318 67.311 41.4793H67.1317V39.2708H74.2773Z" fill="#EBF5EF"/>
<path d="M79.392 41.7225C79.9879 41.7225 80.5042 41.8719 80.9427 42.1689C81.3812 42.4659 81.7459 42.8666 82.039 43.3709C82.332 43.8751 82.5472 44.4532 82.6887 45.109C82.8303 45.7647 82.9 46.4544 82.9 47.1799H77.313V47.6842C77.313 48.0191 77.3429 48.4337 77.4027 48.926C77.4625 49.4183 77.5741 49.8947 77.7356 50.3552C77.897 50.8156 78.1263 51.2083 78.4173 51.5332C78.7103 51.8581 79.093 52.0195 79.5713 52.0195C79.9062 52.0195 80.2052 51.89 80.4643 51.6288C80.7234 51.3677 80.9686 50.979 81.1958 50.4588L82.2343 50.9631C81.8655 51.7106 81.4151 52.2866 80.8789 52.6932C80.3427 53.0998 79.6531 53.3032 78.8079 53.3032C78.202 53.3032 77.6519 53.1616 77.1595 52.8806C76.6672 52.5995 76.2447 52.2149 75.8919 51.7265C75.5391 51.2402 75.266 50.6621 75.0727 49.9964C74.8773 49.3306 74.7796 48.6131 74.7796 47.8437C74.7796 47.0324 74.8913 46.2571 75.1125 45.5216C75.3338 44.7861 75.6487 44.1383 76.0553 43.5801C76.4619 43.022 76.9483 42.5756 77.5163 42.2407C78.0844 41.9058 78.7103 41.7324 79.392 41.7205V41.7225ZM80.9347 45.8305C80.9128 45.6033 80.8869 45.3262 80.853 45.0013C80.8211 44.6764 80.7533 44.3655 80.6497 44.0665C80.546 43.7695 80.3985 43.5124 80.2032 43.2951C80.0079 43.0779 79.7487 42.9702 79.4238 42.9702C79.099 42.9702 78.8358 43.048 78.6046 43.2054C78.3714 43.3629 78.1741 43.5742 78.0127 43.8393C77.8512 44.1044 77.7256 44.4113 77.6399 44.7562C77.5522 45.103 77.4984 45.4598 77.4785 45.8285H80.9387L80.9347 45.8305Z" fill="#EBF5EF"/>
<path d="M87.9847 41.7224C88.7322 41.7224 89.3242 41.8978 89.7627 42.2506C90.2012 42.6034 90.5281 43.1137 90.7453 43.7854L89.5594 44.2239C89.3979 43.8332 89.1986 43.5183 88.9674 43.2732C88.7342 43.03 88.4611 42.9084 88.1482 42.9084C87.4226 42.9084 86.8785 43.2871 86.5157 44.0445C86.153 44.802 85.9716 45.9281 85.9716 47.4231C85.9716 48.0948 86.0234 48.7107 86.1251 49.2748C86.2287 49.8389 86.3802 50.3232 86.5795 50.7279C86.7788 51.1345 87.026 51.4514 87.319 51.6786C87.612 51.9059 87.9469 52.0195 88.3256 52.0195C88.6824 52.0195 88.9853 51.8839 89.2345 51.6129C89.4836 51.3418 89.7328 50.9571 89.9819 50.4588L91.0045 50.9631C90.6038 51.7424 90.1294 52.3264 89.5833 52.7171C89.0371 53.1078 88.3674 53.3011 87.5781 53.3011C86.9383 53.3011 86.3682 53.1596 85.8639 52.8786C85.3597 52.5975 84.9331 52.1989 84.5803 51.6846C84.2275 51.1704 83.9604 50.5584 83.777 49.8488C83.5937 49.1392 83.5 48.3579 83.5 47.5028C83.5 45.6072 83.8946 44.1701 84.6859 43.1914C85.4753 42.2108 86.5755 41.7224 87.9827 41.7224H87.9847Z" fill="#EBF5EF"/>
<path d="M94.3172 38.9778V42.6154C94.4368 42.4201 94.5823 42.2666 94.7557 42.153C94.9291 42.0394 95.1105 41.9497 95.2998 41.8859C95.4892 41.8201 95.6805 41.7783 95.8759 41.7564C96.0712 41.7344 96.2446 41.7245 96.3961 41.7245C96.8824 41.7245 97.305 41.8062 97.6638 41.9676C98.0206 42.1291 98.3156 42.3444 98.5488 42.6095C98.782 42.8746 98.9574 43.1855 99.077 43.5443C99.1966 43.9011 99.2564 44.2758 99.2564 44.6645V53.0122H96.8526V44.9236C96.8526 44.7183 96.8127 44.513 96.731 44.3057C96.6492 44.1004 96.5436 43.921 96.414 43.7695C96.2845 43.618 96.135 43.4925 95.9676 43.3968C95.8001 43.2991 95.6247 43.2513 95.4394 43.2513C95.2221 43.2513 95.0407 43.3131 94.8952 43.4386C94.7497 43.5642 94.6321 43.7237 94.5464 43.917C94.4587 44.1124 94.4009 44.3236 94.367 44.5509C94.3351 44.7781 94.3192 44.9954 94.3192 45.2007V53.0122H91.8994V39.7272L94.3192 38.9798L94.3172 38.9778Z" fill="#EBF5EF"/>
<path d="M102.292 41.8201V42.5994C102.541 42.2646 102.854 42.0334 103.235 41.9098C103.614 41.7862 103.992 41.7224 104.371 41.7224C104.815 41.7224 105.224 41.7922 105.597 41.9337C105.97 42.0752 106.294 42.2686 106.571 42.5177C106.849 42.7669 107.062 43.0698 107.213 43.4266C107.365 43.7834 107.441 44.1801 107.441 44.6126V53.0101H105.021V44.8737C105.021 44.3535 104.901 43.921 104.664 43.5741C104.425 43.2273 104.118 43.0539 103.739 43.0539C103.578 43.0539 103.42 43.0997 103.269 43.1914C103.117 43.2831 102.984 43.4047 102.87 43.5562C102.756 43.7077 102.665 43.8911 102.593 44.1083C102.523 44.3256 102.487 44.5528 102.487 44.79V53.0081H100.084V42.5656L102.292 41.8181V41.8201Z" fill="#EBF5EF"/>
<path d="M109.747 38.8004C110.115 38.8004 110.428 38.9299 110.689 39.191C110.951 39.4521 111.08 39.7711 111.08 40.1498C111.08 40.5285 110.951 40.8474 110.689 41.1085C110.43 41.3676 110.115 41.4992 109.747 41.4992C109.378 41.4992 109.045 41.3696 108.78 41.1085C108.515 40.8494 108.381 40.5285 108.381 40.1498C108.381 39.7711 108.513 39.4521 108.78 39.191C109.045 38.9319 109.368 38.8004 109.747 38.8004ZM110.949 41.8221V53.0121H108.529V42.5696L110.949 41.8221Z" fill="#EBF5EF"/>
<path d="M115.724 41.7225C116.169 41.7225 116.566 41.85 116.918 42.1032C117.269 42.3583 117.576 42.6633 117.835 43.0201L118.485 41.7205L119.557 42.436V55.9482H117.122V52.2786C116.916 52.6474 116.629 52.9105 116.261 53.066C115.892 53.2234 115.487 53.3012 115.043 53.3012C113.926 53.3012 113.093 52.7949 112.541 51.7823C111.989 50.7698 111.712 49.3546 111.712 47.5347C111.712 46.7115 111.802 45.9461 111.979 45.2365C112.158 44.5269 112.418 43.913 112.758 43.3928C113.099 42.8725 113.52 42.4639 114.016 42.1669C114.514 41.87 115.083 41.7205 115.722 41.7205L115.724 41.7225ZM115.724 42.8586C115.453 42.8586 115.216 42.9722 115.011 43.1994C114.805 43.4267 114.634 43.7356 114.499 44.1243C114.363 44.515 114.263 44.9654 114.198 45.4797C114.132 45.994 114.1 46.5441 114.1 47.1281C114.1 48.0271 114.138 48.7765 114.214 49.3785C114.289 49.9784 114.401 50.4648 114.546 50.8315C114.692 51.2003 114.865 51.4594 115.067 51.6109C115.266 51.7624 115.491 51.8381 115.74 51.8381C115.968 51.8381 116.165 51.7624 116.332 51.6109C116.5 51.4594 116.643 51.2681 116.763 51.0349C116.882 50.8017 116.972 50.5425 117.03 50.2555C117.09 49.9685 117.12 49.6894 117.12 49.4183V44.7243C117.12 44.5628 117.084 44.3735 117.014 44.1562C116.944 43.9389 116.849 43.7336 116.729 43.5383C116.609 43.343 116.464 43.1815 116.29 43.0519C116.117 42.9224 115.928 42.8566 115.722 42.8566L115.724 42.8586Z" fill="#EBF5EF"/>
<path d="M122.984 41.7563V50.12C122.984 50.6721 123.103 51.1226 123.34 51.4674C123.578 51.8142 123.899 51.9876 124.299 51.9876C124.504 51.9876 124.684 51.9358 124.835 51.8342C124.987 51.7305 125.114 51.5989 125.216 51.4355C125.32 51.2741 125.397 51.0947 125.451 50.8993C125.505 50.704 125.533 50.5146 125.533 50.3313V42.5038L127.937 41.7563V53.0122H125.972L125.76 52.2328C125.511 52.6235 125.202 52.8985 124.835 53.062C124.467 53.2234 124.066 53.3052 123.633 53.3052C123.201 53.3052 122.8 53.2354 122.432 53.0939C122.063 52.9524 121.744 52.753 121.473 52.4939C121.202 52.2348 120.988 51.9238 120.831 51.5611C120.674 51.1983 120.596 50.7897 120.596 50.3352V42.5078L122.984 41.7603V41.7563Z" fill="#EBF5EF"/>
<path d="M133.492 41.7225C134.088 41.7225 134.604 41.8719 135.043 42.1689C135.481 42.4659 135.846 42.8666 136.139 43.3709C136.432 43.8751 136.647 44.4532 136.789 45.109C136.93 45.7647 137 46.4544 137 47.1799H131.413V47.6842C131.413 48.0191 131.443 48.4337 131.503 48.926C131.563 49.4183 131.674 49.8947 131.836 50.3552C131.997 50.8156 132.226 51.2083 132.517 51.5332C132.81 51.8581 133.193 52.0195 133.671 52.0195C134.006 52.0195 134.305 51.89 134.564 51.6288C134.823 51.3677 135.069 50.979 135.296 50.4588L136.334 50.9631C135.966 51.7106 135.515 52.2866 134.979 52.6932C134.443 53.0998 133.753 53.3032 132.908 53.3032C132.302 53.3032 131.752 53.1616 131.26 52.8806C130.767 52.5995 130.345 52.2149 129.992 51.7265C129.639 51.2402 129.366 50.6621 129.173 49.9964C128.979 49.3306 128.88 48.6131 128.88 47.8437C128.88 47.0324 128.991 46.2571 129.213 45.5216C129.434 44.7861 129.749 44.1383 130.155 43.5801C130.562 43.022 131.048 42.5756 131.616 42.2407C132.184 41.9058 132.81 41.7324 133.492 41.7205V41.7225ZM135.035 45.8305C135.013 45.6033 134.987 45.3262 134.953 45.0013C134.921 44.6764 134.853 44.3655 134.75 44.0665C134.646 43.7695 134.499 43.5124 134.303 43.2951C134.108 43.0779 133.849 42.9702 133.524 42.9702C133.199 42.9702 132.936 43.048 132.705 43.2054C132.471 43.3629 132.274 43.5742 132.113 43.8393C131.951 44.1044 131.826 44.4113 131.74 44.7562C131.652 45.103 131.598 45.4598 131.578 45.8285H135.039L135.035 45.8305Z" fill="#EBF5EF"/>
</g>
<defs>
<clipPath id="clip0_84_5">
<rect width="137" height="56" fill="white"/>
</clipPath>
</defs>
</svg>
