<?xml version="1.0" encoding="UTF-8"?>
<svg id="Layer_1" data-name="Layer 1" xmlns="http://www.w3.org/2000/svg" viewBox="0 0 729 281.94">
  <defs>
    <style>
      .cls-1 {
        fill: #f3cc2c;
      }

      .cls-1, .cls-2, .cls-3 {
        stroke-width: 0px;
      }

      .cls-2 {
        fill: #ebf5ef;
      }

      .cls-3 {
        fill: #a9cf3b;
      }
    </style>
  </defs>
  <g>
    <g>
      <path class="cls-1" d="m163.22,108.2c-1.34,1.19-2.65,2.42-3.92,3.69-1.11,1.11-2.18,2.24-3.21,3.39-.56.63-1.12,1.26-1.67,1.91-2.36,2.79-4.54,5.7-6.51,8.73-2.99,4.59-5.52,9.43-7.56,14.48-3.54,8.71-5.63,18.01-6.16,27.61-.09,1.6-.13,3.21-.13,4.83v47.57h12.29v-47.57c0-1.62.05-3.23.16-4.83.65-9.98,3.28-19.42,7.51-27.93,2-4.01,4.35-7.82,7.01-11.38.38-.51.77-1.02,1.17-1.52,2.33-2.96,4.88-5.73,7.63-8.3,13.21-12.35,30.95-19.92,50.41-19.92v-12.29c-21.21,0-41.25,7.61-57.01,21.55Z"/>
      <path class="cls-2" d="m179.04,141.41c-4.82,8.35-7.72,17.96-8.09,28.19-.02.73-.04,1.47-.04,2.21v93.18s.04,0,.07-.02c4.16-1.02,8.24-2.24,12.22-3.66v-89.5c0-.69.01-1.38.04-2.07,1.09-25.91,22.51-46.65,48.68-46.65v-12.29c-22.59,0-42.34,12.33-52.9,30.62Z"/>
      <path class="cls-3" d="m165.28,69.53c-8.96,3.79-17.31,8.69-24.93,14.63-3.3,2.57-6.47,5.33-9.49,8.29-.3.3-.6.59-.9.89-.44.44-.88.89-1.32,1.34-2.89,2.98-5.6,6.11-8.11,9.37-1.05,1.36-2.07,2.74-3.06,4.15-1.62,2.3-3.14,4.66-4.57,7.08-.7,1.18-1.38,2.37-2.03,3.58-1.47,2.7-2.83,5.47-4.08,8.3-.22.5-.44,1-.65,1.5-1.77,4.18-3.27,8.43-4.5,12.76-2.62,9.17-4.03,18.65-4.21,28.32-.02.72-.02,1.45-.02,2.17v89.38s.04.02.07.03c3.99,1.42,8.06,2.64,12.22,3.66v-93.06c0-.77,0-1.54.03-2.31.23-10.31,2.06-20.23,5.24-29.54,1.33-3.91,2.91-7.71,4.7-11.38.46-.93.92-1.85,1.41-2.77,1.59-3.01,3.32-5.92,5.2-8.73.76-1.15,1.55-2.28,2.36-3.39,2.49-3.42,5.2-6.68,8.11-9.75,1.17-1.23,2.36-2.44,3.59-3.61,2.99-2.86,6.16-5.52,9.49-7.99,16.42-12.16,36.73-19.36,58.69-19.36v-12.29c-15,0-29.55,2.94-43.25,8.73Z"/>
      <path class="cls-2" d="m183.25,169.73c-.18-9.67-1.59-19.15-4.21-28.33-1.23-4.32-2.73-8.57-4.5-12.75-.21-.5-.43-1-.65-1.5-1.25-2.83-2.6-5.6-4.08-8.3-.65-1.21-1.33-2.4-2.03-3.58-1.43-2.42-2.96-4.78-4.57-7.08-.98-1.4-2-2.79-3.06-4.15-2.52-3.26-5.22-6.38-8.11-9.37-.44-.45-.87-.9-1.32-1.34-.3-.3-.6-.59-.9-.89-3.02-2.95-6.19-5.72-9.49-8.29-7.62-5.94-15.97-10.84-24.93-14.63-13.7-5.8-28.25-8.73-43.25-8.73v12.29h0c21.96,0,42.26,7.2,58.69,19.36,3.33,2.46,6.5,5.13,9.49,7.99,1.23,1.17,2.43,2.37,3.59,3.61,2.91,3.07,5.62,6.33,8.11,9.75.81,1.11,1.6,2.24,2.36,3.39,1.88,2.81,3.61,5.72,5.2,8.73.48.91.95,1.84,1.41,2.77,1.79,3.67,3.36,7.47,4.7,11.38,3.18,9.3,5,19.22,5.24,29.53.02.77.03,1.54.03,2.31v93.06c4.16-1.02,8.24-2.24,12.22-3.66.02,0,.05-.02.07-.03v-89.38c0-.73,0-1.45-.02-2.17Z"/>
      <path class="cls-1" d="m146.5,168c-.52-9.6-2.62-18.9-6.15-27.61-2.05-5.04-4.58-9.89-7.56-14.47-1.97-3.03-4.14-5.94-6.51-8.73-.55-.64-1.1-1.28-1.67-1.91-1.04-1.15-2.11-2.28-3.21-3.39-1.28-1.28-2.58-2.5-3.92-3.69-15.76-13.93-35.8-21.55-57.01-21.55v12.29h0c19.47,0,37.2,7.57,50.41,19.92,2.75,2.57,5.3,5.34,7.63,8.3.4.5.78,1.01,1.17,1.52,2.66,3.56,5.01,7.37,7.01,11.38,4.23,8.52,6.87,17.96,7.51,27.94.1,1.59.16,3.2.16,4.83v47.57h12.29v-47.57c0-1.62-.04-3.22-.13-4.83Z"/>
      <path class="cls-3" d="m109.74,169.59c-.37-10.23-3.27-19.83-8.09-28.18-10.55-18.29-30.31-30.62-52.9-30.62v12.29h0c26.17,0,47.59,20.74,48.68,46.65.03.69.04,1.38.04,2.07v89.5c3.99,1.42,8.06,2.64,12.22,3.66.02,0,.04.01.07.02v-93.18c0-.74-.01-1.47-.04-2.21Z"/>
    </g>
    <path class="cls-2" d="m140.35,12.53c70.72,0,128.06,57.33,128.06,128.06,0,55.67-35.52,103.04-85.13,120.69-.02,0-.04.02-.07.03-3.99,1.42-8.06,2.64-12.22,3.66-.02,0-.04.01-.07.02-9.79,2.4-20.03,3.67-30.57,3.67s-20.78-1.27-30.57-3.67c-.02,0-.05-.01-.07-.02-4.16-1.02-8.24-2.24-12.22-3.66-.02,0-.04-.02-.07-.03C47.81,243.64,12.29,196.26,12.29,140.6,12.29,69.87,69.63,12.53,140.35,12.53m0-12.29c-18.94,0-37.32,3.71-54.63,11.03-16.71,7.07-31.72,17.19-44.61,30.07-12.89,12.89-23,27.89-30.07,44.61C3.71,103.27,0,121.65,0,140.6c0,14.92,2.33,29.62,6.93,43.68,4.45,13.6,10.96,26.42,19.33,38.09,8.27,11.52,18.2,21.69,29.51,30.25,11.39,8.62,23.97,15.41,37.37,20.19,0,0,.02,0,.03.01l.1.04.1.04c4.35,1.55,8.83,2.89,13.32,3.99.04,0,.07.02.11.03h.03s.03.01.03.01c10.9,2.67,22.17,4.03,33.5,4.03s22.48-1.34,33.33-3.99c.15-.03.29-.07.44-.11,4.45-1.1,8.89-2.43,13.21-3.96l.1-.04.1-.04s.02,0,.03-.01c13.4-4.78,25.97-11.58,37.37-20.19,11.31-8.55,21.24-18.73,29.51-30.25,8.38-11.67,14.88-24.48,19.33-38.09,4.6-14.06,6.93-28.76,6.93-43.68,0-18.94-3.71-37.32-11.03-54.63-7.07-16.71-17.19-31.72-30.07-44.61-12.89-12.89-27.89-23-44.61-30.07C177.67,3.96,159.29.24,140.35.24h0Z"/>
  </g>
  <g>
    <path class="cls-2" d="m348.91,1.47l15.06,45.01,14.73-45.01h8.67v69.24h-12.03V26.03l-14,42.97-15.3-43.7v45.42h-7.04V1.47h9.9Z"/>
    <path class="cls-2" d="m392.28,42.39c0-4.09.38-7.88,1.15-11.38.76-3.49,2.05-6.51,3.85-9.04s4.21-4.53,7.24-5.97c3.03-1.45,6.81-2.17,11.33-2.17,6.11,0,10.68,2.46,13.71,7.37,3.03,4.91,4.54,12.03,4.54,21.36,0,5.29-.52,9.82-1.56,13.59-1.04,3.76-2.55,6.83-4.54,9.21-1.99,2.37-4.43,4.11-7.33,5.2-2.89,1.09-6.17,1.64-9.82,1.64-6.44,0-11.14-2.47-14.12-7.41-2.97-4.94-4.46-12.4-4.46-22.38Zm22.26,23.57c1.69,0,3.05-.44,4.09-1.31,1.04-.87,1.83-2.22,2.37-4.05.54-1.83.9-4.15,1.06-6.96.16-2.81.25-6.12.25-9.94,0-2.95-.25-5.81-.74-8.59-.49-2.78-1.2-5.28-2.13-7.49s-2.06-3.98-3.4-5.32c-1.34-1.34-2.85-2.01-4.54-2.01-1.2,0-2.24.34-3.11,1.02-.87.68-1.6,1.84-2.17,3.48-.57,1.64-1.01,3.79-1.31,6.47-.3,2.67-.45,5.97-.45,9.9,0,7.97.85,14.09,2.54,18.37,1.69,4.28,4.2,6.42,7.53,6.42Z"/>
    <path class="cls-2" d="m475.93,0v70.71h-9l-1.23-4.67c-1.09,1.91-2.58,3.41-4.46,4.5-1.88,1.09-4.52,1.64-7.9,1.64-2.4,0-4.58-.81-6.55-2.41s-3.67-3.86-5.12-6.75c-1.45-2.89-2.57-6.37-3.36-10.43-.79-4.06-1.19-8.52-1.19-13.38,0-2.84.29-5.76.86-8.76.57-3,1.51-5.73,2.82-8.18,1.31-2.46,3-4.47,5.07-6.06,2.07-1.58,4.61-2.37,7.61-2.37,1.53,0,2.81.1,3.85.29,1.04.19,1.92.46,2.66.82.74.36,1.39.78,1.96,1.27.57.49,1.16,1.01,1.76,1.55V3.76l12.19-3.76Zm-19.81,20.38c-2.35,0-4.11,1.36-5.28,4.09-1.17,2.73-1.76,6.55-1.76,11.46,0,2.73.19,5.8.57,9.21.38,3.41.95,6.63,1.72,9.66.76,3.03,1.76,5.58,2.99,7.65,1.23,2.07,2.66,3.11,4.3,3.11.65,0,1.29-.35,1.92-1.06.63-.71,1.17-1.57,1.64-2.58.46-1.01.83-2.07,1.11-3.19.27-1.12.41-2.09.41-2.91v-23.32c0-.87-.19-2.01-.57-3.4-.38-1.39-.91-2.73-1.6-4.01-.68-1.28-1.49-2.39-2.41-3.31-.93-.93-1.94-1.39-3.03-1.39Z"/>
    <path class="cls-2" d="m503.83,13.83c3,0,5.61.75,7.82,2.25,2.21,1.5,4.05,3.52,5.52,6.06,1.47,2.54,2.56,5.46,3.27,8.76.71,3.3,1.06,6.78,1.06,10.43h-28.15v2.54c0,1.69.15,3.78.45,6.26.3,2.48.86,4.88,1.68,7.2.82,2.32,1.96,4.3,3.44,5.93,1.47,1.64,3.41,2.46,5.81,2.46,1.69,0,3.19-.65,4.5-1.96,1.31-1.31,2.54-3.27,3.68-5.89l5.24,2.54c-1.86,3.76-4.13,6.67-6.83,8.72-2.7,2.05-6.18,3.07-10.44,3.07-3.06,0-5.82-.71-8.31-2.13-2.48-1.42-4.61-3.36-6.38-5.81-1.77-2.46-3.15-5.36-4.13-8.72s-1.47-6.97-1.47-10.84c0-4.09.56-7.99,1.68-11.7,1.12-3.71,2.7-6.97,4.75-9.78,2.05-2.81,4.5-5.06,7.37-6.75,2.86-1.69,6.01-2.56,9.45-2.62Zm7.78,20.71c-.11-1.15-.25-2.54-.41-4.17-.16-1.64-.5-3.2-1.02-4.71-.52-1.5-1.27-2.8-2.25-3.89-.98-1.09-2.29-1.64-3.93-1.64s-2.96.4-4.13,1.19c-1.17.79-2.17,1.86-2.99,3.19-.82,1.34-1.45,2.88-1.88,4.62-.44,1.75-.71,3.55-.82,5.4h17.43Z"/>
    <path class="cls-2" d="m537.88,14.32v6.87c.6-1.58,1.25-2.85,1.96-3.81.71-.95,1.46-1.7,2.25-2.25.79-.54,1.6-.9,2.41-1.06.82-.16,1.61-.25,2.37-.25,2.29,0,4.58,1.15,6.88,3.44l-5.73,7.61c-.49-.27-1.02-.49-1.6-.65-.57-.16-1.32-.25-2.25-.25-.71,0-1.43.27-2.17.82-.74.55-1.42,1.34-2.05,2.37-.63,1.04-1.13,2.29-1.51,3.76s-.57,3.11-.57,4.91v34.86h-12.11V18.09l12.11-3.76Z"/>
    <path class="cls-2" d="m568.82,14.32v3.93c1.25-1.69,2.84-2.85,4.75-3.48,1.91-.63,3.82-.94,5.73-.94,2.24,0,4.3.36,6.18,1.06,1.88.71,3.52,1.69,4.91,2.95,1.39,1.26,2.47,2.78,3.23,4.58.76,1.8,1.15,3.79,1.15,5.97v42.31h-12.2V29.71c0-2.62-.6-4.8-1.8-6.55-1.2-1.75-2.76-2.62-4.67-2.62-.82,0-1.61.23-2.37.7-.76.46-1.43,1.08-2,1.84-.57.76-1.04,1.69-1.39,2.78-.36,1.09-.53,2.24-.53,3.44v41.41h-12.11V18.09l11.13-3.76Z"/>
    <path class="cls-2" d="m351.2,99.68v69.24h-12.19v-69.24h12.19Z"/>
    <path class="cls-2" d="m368.96,112.53v6.87c.6-1.58,1.25-2.85,1.96-3.81.71-.95,1.46-1.7,2.25-2.25.79-.54,1.6-.9,2.41-1.06.82-.16,1.61-.25,2.37-.25,2.29,0,4.58,1.15,6.88,3.44l-5.73,7.61c-.49-.27-1.02-.49-1.6-.65-.57-.16-1.32-.25-2.25-.25-.71,0-1.43.27-2.17.82-.74.55-1.42,1.34-2.05,2.37-.63,1.04-1.13,2.29-1.51,3.76s-.57,3.11-.57,4.91v34.86h-12.11v-52.62l12.11-3.76Z"/>
    <path class="cls-2" d="m400.88,112.53v6.87c.6-1.58,1.25-2.85,1.96-3.81.71-.95,1.46-1.7,2.25-2.25.79-.54,1.6-.9,2.41-1.06.82-.16,1.61-.25,2.37-.25,2.29,0,4.58,1.15,6.88,3.44l-5.73,7.61c-.49-.27-1.02-.49-1.6-.65-.57-.16-1.32-.25-2.25-.25-.71,0-1.43.27-2.17.82-.74.55-1.42,1.34-2.05,2.37-.63,1.04-1.13,2.29-1.51,3.76s-.57,3.11-.57,4.91v34.86h-12.11v-52.62l12.11-3.76Z"/>
    <path class="cls-2" d="m426.98,97.31c1.85,0,3.44.65,4.75,1.96,1.31,1.31,1.96,2.92,1.96,4.83s-.66,3.52-1.96,4.83-2.89,1.96-4.75,1.96-3.53-.65-4.87-1.96c-1.34-1.31-2-2.92-2-4.83s.67-3.52,2-4.83c1.34-1.31,2.96-1.96,4.87-1.96Zm6.06,15.22v56.39h-12.19v-52.62l12.19-3.76Z"/>
    <path class="cls-2" d="m484.93,116.54c-.44,2.78-1.09,4.86-1.96,6.22-.87,1.36-2.16,2.21-3.85,2.54.49,1.47.85,2.96,1.06,4.46.22,1.5.33,3.04.33,4.62,0,7.48-1.84,12.9-5.52,16.29-3.68,3.38-9.1,5.07-16.25,5.07-.44,0-.97-.04-1.6-.12-.63-.08-1.28-.2-1.96-.37-.68-.16-1.35-.33-2-.49s-1.2-.33-1.64-.49c-.16.33-.25.65-.25.98,0,.76.35,1.53,1.06,2.29.71.76,1.61,1.45,2.7,2.05,1.09.6,2.29,1.1,3.6,1.51,1.31.41,2.59.61,3.85.61l.16,1.96c-2.13.38-4.12.79-5.97,1.23-1.86.44-3.45.94-4.79,1.51-1.34.57-2.39,1.2-3.15,1.88-.76.68-1.15,1.46-1.15,2.33,0,.93.26,1.8.78,2.62.52.82,1.2,1.53,2.05,2.13.85.6,1.85,1.08,3.03,1.43,1.17.35,2.41.53,3.72.53,1.47,0,3.18-.12,5.12-.37,1.94-.25,3.85-.56,5.73-.94,1.88-.38,3.63-.81,5.24-1.27,1.61-.46,2.82-.94,3.64-1.43l2.21,4.83c-4.42,2.07-8.81,3.52-13.18,4.34-4.37.82-8.57,1.23-12.6,1.23-2.57,0-4.9-.25-7-.74-2.1-.49-3.93-1.23-5.48-2.21-1.55-.98-2.76-2.17-3.6-3.56s-1.27-2.99-1.27-4.79c0-1.36.33-2.63.98-3.81.66-1.17,1.58-2.22,2.78-3.15,1.2-.93,2.62-1.72,4.26-2.37s3.41-1.17,5.32-1.55c-2.57-.6-4.41-1.43-5.52-2.5-1.12-1.06-1.68-1.98-1.68-2.74,0-.87.49-1.73,1.47-2.58.98-.85,2.21-1.54,3.68-2.09-2.84-2.07-4.9-4.68-6.18-7.82-1.28-3.14-1.92-6.31-1.92-9.53,0-2.95.52-5.76,1.55-8.43,1.04-2.67,2.52-5.03,4.46-7.08,1.94-2.05,4.3-3.68,7.08-4.91,2.78-1.23,5.95-1.84,9.49-1.84,2.73,0,5.18.52,7.37,1.56,2.18,1.04,4.15,2.51,5.89,4.42.6.22,1.25.33,1.96.33,1.75,0,3.3-1.01,4.67-3.03l3.27,1.23Zm-34.37,14.4c0,1.64.18,3.52.53,5.65.35,2.13.97,4.16,1.84,6.1.87,1.94,2.05,3.56,3.52,4.87,1.47,1.31,3.33,1.96,5.57,1.96,2.46,0,4.28-.79,5.48-2.37,1.2-1.58,1.8-4.28,1.8-8.1,0-1.85-.19-3.97-.57-6.34-.38-2.37-1.02-4.6-1.92-6.67-.9-2.07-2.07-3.82-3.52-5.24-1.45-1.42-3.23-2.13-5.36-2.13-2.46,0-4.3,1.05-5.52,3.15-1.23,2.1-1.84,5.14-1.84,9.13Z"/>
    <path class="cls-2" d="m486.48,122.19c2.29-3.71,4.99-6.33,8.1-7.86,3.11-1.53,6.52-2.29,10.23-2.29,2.51,0,4.77.38,6.79,1.15,2.02.76,3.74,1.77,5.16,3.03,1.42,1.26,2.52,2.73,3.31,4.42.79,1.69,1.19,3.47,1.19,5.32v34.54c0,2.4,1.06,5.21,3.19,8.43h-9c-.93-.93-1.62-2.05-2.09-3.36-.46-1.31-.81-2.65-1.02-4.01-.49,1.26-1.09,2.41-1.8,3.48-.71,1.06-1.56,1.99-2.54,2.78-.98.79-2.13,1.42-3.44,1.88-1.31.46-2.86.7-4.67.7-2.89,0-5.33-.44-7.33-1.31-1.99-.87-3.6-2.06-4.83-3.56-1.23-1.5-2.13-3.27-2.7-5.32-.57-2.05-.86-4.24-.86-6.59,0-4.15,1.51-7.72,4.54-10.72,3.03-3,7.54-5.05,13.54-6.14,1.75-.33,3.19-.93,4.34-1.8,1.15-.87,1.96-2.15,2.46-3.85v-3.93c0-2.62-.75-4.69-2.25-6.22-1.5-1.53-3.45-2.29-5.85-2.29-1.42,0-2.84.59-4.25,1.76-1.42,1.17-2.84,2.71-4.26,4.62l-5.97-2.86Zm9.82,31.26c0,2.07.09,3.81.29,5.2.19,1.39.54,2.52,1.06,3.4.52.87,1.21,1.5,2.09,1.88.87.38,1.96.57,3.27.57s2.52-.65,3.64-1.96c1.12-1.31,1.92-2.97,2.41-4.99v-16.2c-.55.33-1.1.6-1.68.82-.57.22-1.19.44-1.84.65-1.53.49-2.87,1.13-4.01,1.92-1.15.79-2.12,1.66-2.91,2.62-.79.96-1.38,1.96-1.76,3.03-.38,1.06-.57,2.09-.57,3.07Z"/>
    <path class="cls-2" d="m542.63,101.97v11.13h6.88v5.48h-6.88v37.97c0,.82.14,1.68.41,2.58.27.9.65,1.72,1.15,2.46s1.09,1.34,1.8,1.8c.71.46,1.53.7,2.46.7s1.79-.2,2.58-.61c.79-.41,1.62-1.19,2.5-2.33l2.13,5.32c-3.38,2.56-6.66,3.85-9.82,3.85-4.96,0-8.76-1.39-11.38-4.17-2.62-2.78-3.93-6.41-3.93-10.88v-36.67h-4.09v-5.4c7.31,0,11.54-3.85,12.69-11.54l3.52.33Z"/>
    <path class="cls-2" d="m563.74,97.31c1.85,0,3.44.65,4.75,1.96,1.31,1.31,1.96,2.92,1.96,4.83s-.66,3.52-1.96,4.83-2.89,1.96-4.75,1.96-3.53-.65-4.87-1.96c-1.34-1.31-2-2.92-2-4.83s.67-3.52,2-4.83c1.34-1.31,2.96-1.96,4.87-1.96Zm6.06,15.22v56.39h-12.19v-52.62l12.19-3.76Z"/>
    <path class="cls-2" d="m574.63,140.6c0-4.09.38-7.88,1.15-11.38.76-3.49,2.05-6.51,3.85-9.04s4.21-4.53,7.24-5.97c3.03-1.45,6.81-2.17,11.33-2.17,6.11,0,10.68,2.46,13.71,7.37,3.03,4.91,4.54,12.03,4.54,21.36,0,5.29-.52,9.82-1.56,13.59-1.04,3.76-2.55,6.83-4.54,9.21-1.99,2.37-4.43,4.11-7.33,5.2-2.89,1.09-6.17,1.64-9.82,1.64-6.44,0-11.14-2.47-14.12-7.41-2.97-4.94-4.46-12.4-4.46-22.38Zm22.26,23.57c1.69,0,3.05-.44,4.09-1.31,1.04-.87,1.83-2.22,2.37-4.05.54-1.83.9-4.15,1.06-6.96.16-2.81.25-6.12.25-9.94,0-2.95-.25-5.81-.74-8.59-.49-2.78-1.2-5.28-2.13-7.49s-2.06-3.98-3.4-5.32c-1.34-1.34-2.85-2.01-4.54-2.01-1.2,0-2.24.34-3.11,1.02-.87.68-1.6,1.84-2.17,3.48-.57,1.64-1.01,3.79-1.31,6.47-.3,2.67-.45,5.97-.45,9.9,0,7.97.85,14.09,2.54,18.37,1.69,4.28,4.2,6.42,7.53,6.42Z"/>
    <path class="cls-2" d="m632.41,112.53v3.93c1.25-1.69,2.84-2.85,4.75-3.48,1.91-.63,3.82-.94,5.73-.94,2.24,0,4.3.36,6.18,1.06,1.88.71,3.52,1.69,4.91,2.95,1.39,1.26,2.47,2.78,3.23,4.58.76,1.8,1.15,3.79,1.15,5.97v42.31h-12.2v-41c0-2.62-.6-4.8-1.8-6.55-1.2-1.75-2.76-2.62-4.67-2.62-.82,0-1.61.23-2.37.7-.76.46-1.43,1.08-2,1.84-.57.76-1.04,1.69-1.39,2.78-.36,1.09-.53,2.24-.53,3.44v41.41h-12.11v-52.62l11.13-3.76Z"/>
    <path class="cls-2" d="m372.8,197.89v11.21h-.98c-1.09-3.82-2.75-5.73-4.99-5.73h-5.73v63.75h-12.28v-63.75h-6.55c-2.02,0-3.55,1.88-4.58,5.65h-.9v-11.13h36.01Z"/>
    <path class="cls-2" d="m398.59,210.25c3,0,5.61.75,7.82,2.25,2.21,1.5,4.05,3.52,5.52,6.06,1.47,2.54,2.56,5.46,3.27,8.76.71,3.3,1.06,6.78,1.06,10.43h-28.15v2.54c0,1.69.15,3.78.45,6.26.3,2.48.86,4.88,1.68,7.2.82,2.32,1.96,4.3,3.44,5.93,1.47,1.64,3.41,2.46,5.81,2.46,1.69,0,3.19-.65,4.5-1.96,1.31-1.31,2.54-3.27,3.68-5.89l5.24,2.54c-1.86,3.76-4.13,6.67-6.83,8.72-2.7,2.05-6.18,3.07-10.44,3.07-3.06,0-5.82-.71-8.31-2.13-2.48-1.42-4.61-3.36-6.38-5.81-1.77-2.46-3.15-5.36-4.13-8.72s-1.47-6.97-1.47-10.84c0-4.09.56-7.99,1.68-11.7,1.12-3.71,2.7-6.97,4.75-9.78,2.05-2.81,4.5-5.06,7.37-6.75,2.86-1.69,6.01-2.56,9.45-2.62Zm7.78,20.71c-.11-1.15-.25-2.54-.41-4.17-.16-1.64-.5-3.2-1.02-4.71-.52-1.5-1.27-2.8-2.25-3.89-.98-1.09-2.29-1.64-3.93-1.64s-2.96.4-4.13,1.19c-1.17.79-2.17,1.86-2.99,3.19-.82,1.34-1.45,2.88-1.88,4.62-.44,1.75-.71,3.55-.82,5.4h17.43Z"/>
    <path class="cls-2" d="m441.88,210.25c3.76,0,6.75.89,8.96,2.66,2.21,1.77,3.86,4.35,4.95,7.73l-5.97,2.21c-.82-1.96-1.81-3.56-2.99-4.79-1.17-1.23-2.55-1.84-4.13-1.84-3.66,0-6.4,1.91-8.23,5.73-1.83,3.82-2.74,9.49-2.74,17.02,0,3.38.26,6.49.78,9.33.52,2.84,1.28,5.28,2.29,7.32,1.01,2.05,2.25,3.64,3.72,4.79,1.47,1.15,3.16,1.72,5.07,1.72,1.8,0,3.33-.68,4.58-2.05,1.25-1.36,2.51-3.3,3.76-5.81l5.16,2.54c-2.02,3.93-4.41,6.87-7.16,8.84-2.76,1.96-6.13,2.95-10.11,2.95-3.22,0-6.1-.71-8.63-2.13s-4.69-3.42-6.46-6.02c-1.77-2.59-3.12-5.67-4.05-9.25-.93-3.57-1.39-7.52-1.39-11.83,0-9.55,1.99-16.79,5.97-21.73,3.98-4.94,9.52-7.41,16.61-7.41Z"/>
    <path class="cls-2" d="m473.8,196.42v18.33c.6-.98,1.34-1.76,2.21-2.33.87-.57,1.79-1.02,2.74-1.35.95-.33,1.92-.54,2.91-.65.98-.11,1.85-.16,2.62-.16,2.46,0,4.58.41,6.38,1.23,1.8.82,3.29,1.9,4.46,3.23,1.17,1.34,2.06,2.91,2.66,4.71.6,1.8.9,3.68.9,5.65v42.07h-12.11v-40.76c0-1.04-.2-2.07-.61-3.11-.41-1.04-.94-1.94-1.6-2.7-.66-.76-1.41-1.39-2.25-1.88-.85-.49-1.73-.74-2.66-.74-1.09,0-2,.31-2.74.94-.74.63-1.32,1.43-1.76,2.41-.44.98-.74,2.05-.9,3.19s-.25,2.24-.25,3.27v39.37h-12.19v-66.95l12.19-3.76Z"/>
    <path class="cls-2" d="m513.98,210.74v3.93c1.25-1.69,2.84-2.85,4.75-3.48,1.91-.63,3.82-.94,5.73-.94,2.24,0,4.3.36,6.18,1.06,1.88.71,3.52,1.69,4.91,2.95,1.39,1.26,2.47,2.78,3.23,4.58.76,1.8,1.15,3.79,1.15,5.97v42.31h-12.2v-41c0-2.62-.6-4.8-1.8-6.55-1.2-1.75-2.76-2.62-4.67-2.62-.82,0-1.61.23-2.37.7-.76.46-1.43,1.08-2,1.84-.57.76-1.04,1.69-1.39,2.78-.36,1.09-.53,2.24-.53,3.44v41.41h-12.11v-52.62l11.13-3.76Z"/>
    <path class="cls-2" d="m551.55,195.52c1.85,0,3.44.65,4.75,1.96,1.31,1.31,1.96,2.92,1.96,4.83s-.66,3.52-1.96,4.83-2.89,1.96-4.75,1.96-3.53-.65-4.87-1.96c-1.34-1.31-2-2.92-2-4.83s.67-3.52,2-4.83c1.34-1.31,2.96-1.96,4.87-1.96Zm6.06,15.22v56.39h-12.19v-52.62l12.19-3.76Z"/>
    <path class="cls-2" d="m581.66,210.25c2.24,0,4.24.64,6.02,1.92,1.77,1.28,3.31,2.82,4.62,4.62l3.27-6.55,5.4,3.6v68.09h-12.28v-18.5c-1.04,1.86-2.48,3.18-4.34,3.97-1.86.79-3.9,1.19-6.14,1.19-5.62,0-9.82-2.55-12.6-7.65-2.78-5.1-4.17-12.24-4.17-21.4,0-4.15.45-8.01,1.35-11.58.9-3.57,2.21-6.67,3.93-9.29s3.83-4.68,6.34-6.18c2.51-1.5,5.37-2.25,8.59-2.25Zm0,5.73c-1.36,0-2.57.57-3.6,1.72-1.04,1.15-1.9,2.7-2.58,4.66-.68,1.96-1.19,4.24-1.51,6.83-.33,2.59-.49,5.36-.49,8.31,0,4.53.19,8.31.57,11.33s.94,5.47,1.68,7.32c.74,1.86,1.61,3.17,2.62,3.93,1.01.76,2.14,1.15,3.4,1.15,1.15,0,2.14-.38,2.99-1.15.85-.76,1.57-1.73,2.17-2.91.6-1.17,1.05-2.48,1.35-3.93.3-1.45.45-2.85.45-4.21v-23.65c0-.82-.18-1.77-.53-2.86-.36-1.09-.83-2.13-1.43-3.11-.6-.98-1.34-1.8-2.21-2.46-.87-.65-1.83-.98-2.86-.98Z"/>
    <path class="cls-2" d="m618.25,210.41v42.15c0,2.78.6,5.05,1.8,6.79,1.2,1.75,2.81,2.62,4.83,2.62,1.04,0,1.94-.26,2.7-.78.76-.52,1.4-1.19,1.92-2.01.52-.82.91-1.72,1.19-2.7.27-.98.41-1.94.41-2.86v-39.45l12.11-3.76v56.72h-9.9l-1.06-3.93c-1.26,1.96-2.81,3.36-4.67,4.17-1.86.82-3.87,1.23-6.06,1.23s-4.2-.36-6.06-1.06c-1.86-.71-3.47-1.72-4.83-3.03-1.36-1.31-2.44-2.88-3.23-4.71-.79-1.83-1.19-3.89-1.19-6.18v-39.45l12.03-3.76Z"/>
    <path class="cls-2" d="m671.2,210.25c3,0,5.61.75,7.82,2.25,2.21,1.5,4.05,3.52,5.52,6.06,1.47,2.54,2.56,5.46,3.27,8.76.71,3.3,1.06,6.78,1.06,10.43h-28.15v2.54c0,1.69.15,3.78.45,6.26.3,2.48.86,4.88,1.68,7.2.82,2.32,1.96,4.3,3.44,5.93,1.47,1.64,3.41,2.46,5.81,2.46,1.69,0,3.19-.65,4.5-1.96,1.31-1.31,2.54-3.27,3.68-5.89l5.24,2.54c-1.86,3.76-4.13,6.67-6.83,8.72-2.7,2.05-6.18,3.07-10.44,3.07-3.06,0-5.82-.71-8.31-2.13-2.48-1.42-4.61-3.36-6.38-5.81-1.77-2.46-3.15-5.36-4.13-8.72s-1.47-6.97-1.47-10.84c0-4.09.56-7.99,1.68-11.7,1.12-3.71,2.7-6.97,4.75-9.78,2.05-2.81,4.5-5.06,7.37-6.75,2.86-1.69,6.01-2.56,9.45-2.62Zm7.78,20.71c-.11-1.15-.25-2.54-.41-4.17-.16-1.64-.5-3.2-1.02-4.71-.52-1.5-1.27-2.8-2.25-3.89-.98-1.09-2.29-1.64-3.93-1.64s-2.96.4-4.13,1.19c-1.17.79-2.17,1.86-2.99,3.19-.82,1.34-1.45,2.88-1.88,4.62-.44,1.75-.71,3.55-.82,5.4h17.43Z"/>
    <path class="cls-2" d="m711.46,210.25c3.22,0,6,.68,8.35,2.05,2.35,1.36,4.31,3.57,5.89,6.63l-5.32,4.42c-1.31-1.91-2.62-3.45-3.93-4.62-1.31-1.17-2.65-1.76-4.01-1.76-.93,0-1.8.19-2.62.57-.82.38-1.54.89-2.17,1.51-.63.63-1.12,1.36-1.47,2.21-.36.85-.53,1.71-.53,2.58,0,2.02.44,3.66,1.31,4.91.87,1.26,1.98,2.33,3.31,3.23,1.34.9,2.81,1.69,4.42,2.37,1.61.68,3.15,1.43,4.62,2.25,1.31.76,2.48,1.69,3.52,2.78,1.04,1.09,1.9,2.28,2.58,3.56.68,1.28,1.21,2.62,1.6,4.01.38,1.39.57,2.74.57,4.05,0,2.62-.44,5.01-1.31,7.16-.87,2.16-2.13,4.01-3.76,5.57s-3.66,2.76-6.06,3.6c-2.4.85-5.1,1.27-8.1,1.27-3.49,0-6.64-.93-9.45-2.78-2.81-1.85-5.03-4.91-6.67-9.17l6.06-4.01c.49,1.15,1.09,2.28,1.8,3.4.71,1.12,1.47,2.1,2.29,2.95.82.85,1.66,1.54,2.54,2.09.87.55,1.77.82,2.7.82.98,0,1.94-.23,2.86-.7.93-.46,1.75-1.09,2.46-1.88.71-.79,1.28-1.68,1.72-2.66.44-.98.66-1.99.66-3.03,0-1.53-.6-3.01-1.8-4.46-1.2-1.45-2.59-2.58-4.17-3.4-1.96-.98-3.89-1.99-5.77-3.03-1.88-1.04-3.56-2.26-5.03-3.68-1.47-1.42-2.66-3.11-3.56-5.07s-1.35-4.36-1.35-7.2.46-5.13,1.39-7.2c.93-2.07,2.2-3.81,3.81-5.2,1.61-1.39,3.49-2.43,5.65-3.11,2.15-.68,4.49-1.02,7-1.02Z"/>
  </g>
</svg>