<svg width="1273" height="784" viewBox="0 0 1273 784" fill="none" xmlns="http://www.w3.org/2000/svg">
<mask id="path-1-inside-1_5_152" fill="white">
<path fill-rule="evenodd" clip-rule="evenodd" d="M1031.91 688.618C1031.92 689.11 1031.93 689.602 1031.94 690.095L1031.85 690.005C1031.85 690.022 1031.85 690.039 1031.85 690.056C1032.03 696.719 1032.03 703.383 1032.03 710.139V710.152V1540.12C1031.99 1540.14 1031.94 1540.17 1031.89 1540.19C1031.75 1540.27 1031.6 1540.35 1031.48 1540.38V1540.39C994.518 1553.58 956.632 1564.91 918.003 1574.38C917.724 1574.57 917.353 1574.57 917.353 1574.57V709.316C917.353 703.043 917.508 696.77 917.676 690.568C917.662 689.977 917.647 689.386 917.632 688.795C915.403 593.058 898.503 500.943 868.974 414.585C856.531 378.278 841.952 342.992 825.331 308.913C821.059 300.277 816.695 291.641 812.238 283.191C797.474 255.241 781.409 228.219 763.952 202.126C756.894 191.447 749.559 180.954 742.037 170.647C718.916 138.89 693.751 108.618 666.729 80.1107C655.958 68.5963 644.815 57.4534 633.393 46.589C605.629 20.0316 576.193 -4.76151 545.271 -27.6046C392.706 -140.52 204.204 -207.378 0.287842 -207.378V-321.5C139.575 -321.5 274.683 -294.293 401.899 -240.435C485.099 -205.242 562.636 -159.741 633.393 -104.584C664.037 -80.7193 693.473 -54.9977 721.516 -27.6046C722.909 -26.2117 724.301 -24.8421 725.694 -23.4724C727.087 -22.1028 728.48 -20.7331 729.873 -19.3402C733 -16.2826 736.023 -13.173 739.059 -10.0504C740.08 -9.00031 741.102 -7.94876 742.13 -6.89722C768.966 20.8673 794.038 49.839 817.438 80.1107C827.281 92.7394 836.752 105.647 845.852 118.647C860.803 140.004 875.01 161.919 888.289 184.39C894.789 195.347 901.103 206.398 907.139 217.633C920.882 242.705 933.417 268.427 945.025 294.705C947.068 299.348 949.11 303.991 951.06 308.634C967.475 347.399 981.39 386.813 992.803 426.875C1090.9 257.173 1274.21 142.79 1483.88 142.79V256.912C1241.37 256.912 1042.78 448.712 1031.91 688.618Z"/>
</mask>
<path d="M1031.94 690.095L1028.4 693.629L1037.17 702.401L1036.94 690.002L1031.94 690.095ZM1031.91 688.618L1026.92 688.392L1026.91 688.555L1026.91 688.719L1031.91 688.618ZM1031.85 690.005L1035.39 686.471L1027.35 678.426L1026.86 689.789L1031.85 690.005ZM1031.85 690.056L1026.85 689.84L1026.85 690.017L1026.85 690.194L1031.85 690.056ZM1032.03 1540.12L1034.27 1544.59L1037.03 1543.2V1540.12H1032.03ZM1031.89 1540.19L1034.31 1544.57L1034.31 1544.57L1031.89 1540.19ZM1031.48 1540.38L1030.3 1535.52L1026.48 1536.45V1540.38H1031.48ZM1031.48 1540.39L1033.16 1545.1L1036.48 1543.92V1540.39H1031.48ZM918.003 1574.38L916.812 1569.52L915.96 1569.73L915.23 1570.22L918.003 1574.38ZM917.353 1574.57H912.353V1579.56L917.352 1579.57L917.353 1574.57ZM917.676 690.568L922.674 690.703L922.678 690.576L922.675 690.448L917.676 690.568ZM917.632 688.795L912.633 688.911L912.634 688.924L917.632 688.795ZM868.974 414.585L873.705 412.967L873.704 412.964L868.974 414.585ZM825.331 308.913L829.825 306.721L829.819 306.708L829.813 306.696L825.331 308.913ZM812.238 283.191L816.66 280.858L816.659 280.856L812.238 283.191ZM763.952 202.126L759.78 204.883L759.788 204.895L759.796 204.906L763.952 202.126ZM742.037 170.647L737.995 173.59L737.998 173.595L742.037 170.647ZM666.729 80.1107L663.078 83.5265L663.089 83.5385L663.101 83.5504L666.729 80.1107ZM633.393 46.589L629.937 50.2022L629.947 50.2118L633.393 46.589ZM545.271 -27.6046L542.297 -23.5856L542.3 -23.5829L545.271 -27.6046ZM0.287842 -207.378H-4.71216V-202.378H0.287842V-207.378ZM0.287842 -321.5V-326.5H-4.71216V-321.5H0.287842ZM401.899 -240.435L399.949 -235.831L399.951 -235.83L401.899 -240.435ZM633.393 -104.584L630.319 -100.64L630.321 -100.639L633.393 -104.584ZM721.516 -27.6046L725.051 -31.1402L725.03 -31.1609L725.01 -31.1813L721.516 -27.6046ZM729.873 -19.3402L726.337 -15.8047L726.357 -15.7848L726.377 -15.7652L729.873 -19.3402ZM739.059 -10.0504L735.474 -6.56503L735.474 -6.56497L739.059 -10.0504ZM742.13 -6.89722L745.725 -10.3721L745.715 -10.3825L745.705 -10.3929L742.13 -6.89722ZM817.438 80.1107L813.482 83.1686L813.488 83.1765L813.494 83.1844L817.438 80.1107ZM845.852 118.647L841.756 121.514H841.756L845.852 118.647ZM888.289 184.39L883.984 186.934L883.988 186.941L888.289 184.39ZM907.139 217.633L902.734 220L902.744 220.018L902.754 220.037L907.139 217.633ZM945.025 294.705L949.601 292.692L949.599 292.685L945.025 294.705ZM951.06 308.634L946.451 310.57L946.453 310.577L946.456 310.584L951.06 308.634ZM992.803 426.875L987.994 428.245L991.227 439.592L997.132 429.377L992.803 426.875ZM1483.88 142.79H1488.88V137.79H1483.88V142.79ZM1483.88 256.912V261.912H1488.88V256.912H1483.88ZM1036.94 690.002C1036.93 689.507 1036.92 689.012 1036.91 688.518L1026.91 688.719C1026.92 689.208 1026.93 689.698 1026.94 690.188L1036.94 690.002ZM1028.31 693.54L1028.4 693.629L1035.48 686.56L1035.39 686.471L1028.31 693.54ZM1036.84 690.272C1036.84 690.264 1036.84 690.256 1036.84 690.247C1036.85 690.239 1036.85 690.23 1036.85 690.222L1026.86 689.789C1026.85 689.797 1026.85 689.805 1026.85 689.814C1026.85 689.822 1026.85 689.831 1026.85 689.84L1036.84 690.272ZM1037.03 710.139C1037.03 703.395 1037.03 696.662 1036.85 689.918L1026.85 690.194C1027.03 696.777 1027.03 703.371 1027.03 710.139H1037.03ZM1037.03 710.152V710.139H1027.03V710.152H1037.03ZM1037.03 1540.12V710.152H1027.03V1540.12H1037.03ZM1034.31 1544.57C1034.32 1544.56 1034.33 1544.56 1034.34 1544.55C1034.34 1544.55 1034.35 1544.55 1034.34 1544.55C1034.34 1544.55 1034.34 1544.55 1034.33 1544.56C1034.31 1544.57 1034.3 1544.57 1034.27 1544.59L1029.79 1535.65C1029.64 1535.72 1029.49 1535.8 1029.47 1535.82L1034.31 1544.57ZM1032.65 1545.24C1033.22 1545.1 1033.66 1544.9 1033.85 1544.81C1034.07 1544.7 1034.26 1544.59 1034.31 1544.57L1029.47 1535.82C1029.38 1535.87 1029.43 1535.84 1029.51 1535.8C1029.55 1535.78 1029.64 1535.74 1029.76 1535.69C1029.87 1535.65 1030.06 1535.58 1030.3 1535.52L1032.65 1545.24ZM1036.48 1540.39V1540.38H1026.48V1540.39H1036.48ZM919.194 1579.24C957.984 1569.73 996.033 1558.35 1033.16 1545.1L1029.8 1535.69C993.003 1548.81 955.28 1560.09 916.812 1569.52L919.194 1579.24ZM917.353 1574.57C917.352 1579.57 917.353 1579.57 917.354 1579.57C917.354 1579.57 917.356 1579.57 917.356 1579.57C917.358 1579.57 917.36 1579.57 917.361 1579.57C917.365 1579.57 917.368 1579.57 917.372 1579.57C917.378 1579.57 917.385 1579.57 917.392 1579.57C917.407 1579.57 917.422 1579.57 917.437 1579.57C917.468 1579.57 917.502 1579.56 917.538 1579.56C917.609 1579.56 917.692 1579.56 917.784 1579.55C917.964 1579.54 918.198 1579.51 918.467 1579.46C918.936 1579.38 919.843 1579.16 920.776 1578.54L915.23 1570.22C915.884 1569.78 916.467 1569.66 916.68 1569.62C916.822 1569.6 916.946 1569.58 917.047 1569.58C917.1 1569.57 917.152 1569.57 917.202 1569.57C917.227 1569.57 917.252 1569.57 917.278 1569.57C917.29 1569.57 917.303 1569.57 917.316 1569.57C917.322 1569.57 917.329 1569.57 917.335 1569.57C917.339 1569.57 917.342 1569.57 917.345 1569.57C917.347 1569.57 917.348 1569.57 917.35 1569.57C917.351 1569.57 917.352 1569.57 917.352 1569.57C917.354 1569.57 917.355 1569.57 917.353 1574.57ZM912.353 709.316V1574.57H922.353V709.316H912.353ZM912.678 690.432C912.51 696.635 912.353 702.969 912.353 709.316H922.353C922.353 703.118 922.506 696.905 922.674 690.703L912.678 690.432ZM912.634 688.924C912.649 689.512 912.663 690.099 912.677 690.687L922.675 690.448C922.66 689.854 922.646 689.259 922.63 688.665L912.634 688.924ZM864.243 416.203C893.608 502.081 910.417 593.69 912.633 688.911L922.63 688.678C920.39 592.426 903.398 499.805 873.705 412.967L864.243 416.203ZM820.837 311.105C837.367 344.997 851.868 380.092 864.244 416.206L873.704 412.964C861.195 376.463 846.538 340.987 829.825 306.721L820.837 311.105ZM807.815 285.524C812.246 293.923 816.59 302.518 820.849 311.129L829.813 306.696C825.529 298.036 821.144 289.359 816.66 280.858L807.815 285.524ZM759.796 204.906C777.154 230.851 793.131 257.724 807.817 285.526L816.659 280.856C801.816 252.757 785.664 225.587 768.107 199.346L759.796 204.906ZM737.998 173.595C745.48 183.847 752.771 194.276 759.78 204.883L768.123 199.369C761.018 188.618 753.637 178.062 746.076 167.7L737.998 173.595ZM663.101 83.5504C689.973 111.9 714.999 142.006 737.995 173.59L746.079 167.704C722.832 135.774 697.529 105.336 670.358 76.671L663.101 83.5504ZM629.947 50.2118C641.309 61.0191 652.382 72.0929 663.078 83.5265L670.381 76.6949C659.534 65.0998 648.321 53.8877 636.839 42.9662L629.947 50.2118ZM542.3 -23.5829C573.051 -0.866119 602.325 23.7905 629.937 50.2022L636.85 42.9758C608.933 16.2727 579.335 -8.65689 548.242 -31.6262L542.3 -23.5829ZM0.287842 -202.378C203.093 -202.378 390.559 -135.888 542.297 -23.5856L548.246 -31.6236C394.852 -145.152 205.315 -212.378 0.287842 -212.378V-202.378ZM-4.71216 -321.5V-207.378H5.28784V-321.5H-4.71216ZM403.848 -245.039C276.008 -299.161 140.236 -326.5 0.287842 -326.5V-316.5C138.913 -316.5 273.358 -289.424 399.949 -235.831L403.848 -245.039ZM636.467 -108.527C565.362 -163.956 487.447 -209.678 403.846 -245.04L399.951 -235.83C482.752 -200.806 559.909 -155.527 630.319 -100.64L636.467 -108.527ZM725.01 -31.1813C696.835 -58.7032 667.258 -84.5479 636.466 -108.529L630.321 -100.639C660.815 -76.8907 690.111 -51.2922 718.022 -24.0278L725.01 -31.1813ZM729.2 -27.0375C727.805 -28.4095 726.427 -29.7646 725.051 -31.1402L717.98 -24.069C719.39 -22.6589 720.798 -21.2747 722.189 -19.9073L729.2 -27.0375ZM733.408 -22.8757C731.998 -24.2859 730.591 -25.6702 729.2 -27.0375L722.189 -19.9073C723.584 -18.5353 724.962 -17.1803 726.337 -15.8047L733.408 -22.8757ZM742.644 -13.5357C739.615 -16.651 736.548 -19.8061 733.368 -22.9153L726.377 -15.7652C729.452 -12.7592 732.431 -9.69507 735.474 -6.56503L742.644 -13.5357ZM745.705 -10.3929C744.683 -11.4384 743.666 -12.4847 742.644 -13.5357L735.474 -6.56497C736.494 -5.51587 737.521 -4.45914 738.555 -3.40158L745.705 -10.3929ZM821.394 77.0528C797.88 46.6346 772.688 17.5237 745.725 -10.3721L738.535 -3.4223C765.244 24.2109 790.195 53.0435 813.482 83.1686L821.394 77.0528ZM849.949 115.779C840.806 102.718 831.284 89.7414 821.382 77.037L813.494 83.1844C823.278 95.7374 832.699 108.575 841.756 121.514L849.949 115.779ZM892.593 181.847C879.244 159.256 864.967 137.234 849.949 115.779L841.756 121.514C856.639 142.774 870.776 164.581 883.984 186.934L892.593 181.847ZM911.543 215.267C905.467 203.955 899.116 192.842 892.589 181.839L883.988 186.941C890.461 197.853 896.739 208.84 902.734 220L911.543 215.267ZM949.599 292.685C937.941 266.293 925.343 240.442 911.523 215.23L902.754 220.037C916.421 244.968 928.894 270.561 940.451 296.726L949.599 292.685ZM955.67 306.698C953.701 302.01 951.641 297.328 949.601 292.692L940.448 296.719C942.494 301.369 944.52 305.973 946.451 310.57L955.67 306.698ZM997.612 425.505C986.141 385.244 972.159 345.637 955.665 306.685L946.456 310.584C962.792 349.162 976.638 388.382 987.994 428.245L997.612 425.505ZM1483.88 137.79C1272.35 137.79 1087.42 253.195 988.474 424.373L997.132 429.377C1094.37 261.152 1276.08 147.79 1483.88 147.79V137.79ZM1488.88 256.912V142.79H1478.88V256.912H1488.88ZM1036.91 688.845C1047.66 451.596 1244.05 261.912 1483.88 261.912V251.912C1238.68 251.912 1037.91 445.828 1026.92 688.392L1036.91 688.845Z" fill="#A9CF3B" mask="url(#path-1-inside-1_5_152)"/>
</svg>
