<svg width="294" height="238" viewBox="0 0 294 238" fill="none" xmlns="http://www.w3.org/2000/svg">
<rect width="294" height="238" rx="16" fill="#EBF5EF"/>
<path d="M104.76 88.8283C104.76 82.1718 109.496 76.7598 115.32 76.7598H178.68C184.505 76.7598 189.24 82.1718 189.24 88.8283V149.171C189.24 155.828 184.505 161.24 178.68 161.24H115.32C109.496 161.24 104.76 155.828 104.76 149.171V88.8283ZM158.187 108.911C157.445 107.667 156.224 106.931 154.92 106.931C153.617 106.931 152.379 107.667 151.653 108.911L137.298 132.973L132.926 126.731C132.167 125.656 131.028 125.034 129.84 125.034C128.652 125.034 127.497 125.656 126.755 126.731L116.195 141.817C115.238 143.175 115.056 145.041 115.716 146.607C116.376 148.172 117.762 149.171 119.28 149.171H174.72C176.189 149.171 177.542 148.247 178.218 146.757C178.895 145.268 178.812 143.476 177.987 142.1L158.187 108.911ZM123.24 106.931C125.341 106.931 127.355 105.978 128.84 104.28C130.326 102.583 131.16 100.28 131.16 97.8798C131.16 95.4792 130.326 93.1769 128.84 91.4794C127.355 89.782 125.341 88.8283 123.24 88.8283C121.139 88.8283 119.125 89.782 117.64 91.4794C116.154 93.1769 115.32 95.4792 115.32 97.8798C115.32 100.28 116.154 102.583 117.64 104.28C119.125 105.978 121.139 106.931 123.24 106.931Z" fill="#033125" fill-opacity="0.3"/>
</svg>
